<?xml version="1.0" encoding="utf-8" standalone="no"?>
<!DOCTYPE svg PUBLIC "-//W3C//DTD SVG 1.1//EN"
  "http://www.w3.org/Graphics/SVG/1.1/DTD/svg11.dtd">
<!-- Created with matplotlib (http://matplotlib.org/) -->
<svg height="345pt" version="1.1" viewBox="0 0 460 345" width="460pt" xmlns="http://www.w3.org/2000/svg" xmlns:xlink="http://www.w3.org/1999/xlink">
 <defs>
  <style type="text/css">
*{stroke-linecap:butt;stroke-linejoin:round;}
  </style>
 </defs>
 <g id="figure_1">
  <g id="patch_1">
   <path d="M 0 345.6 
L 460.8 345.6 
L 460.8 0 
L 0 0 
z
" style="fill:#ffffff;"/>
  </g>
  <g id="axes_1">
   <g id="patch_2">
    <path d="M 57.6 276.48 
L 414.72 276.48 
L 414.72 41.472 
L 57.6 41.472 
z
" style="fill:#e5e5e5;"/>
   </g>
   <g id="matplotlib.axis_1">
    <g id="xtick_1">
     <g id="line2d_1">
      <path clip-path="url(#pb5a433994d)" d="M 59.562198 276.48 
L 59.562198 41.472 
" style="fill:none;stroke:#ffffff;stroke-linecap:square;stroke-width:0.8;"/>
     </g>
     <g id="line2d_2">
      <defs>
       <path d="M 0 0 
L 0 3.5 
" id="m100c3f12fc" style="stroke:#555555;stroke-width:0.8;"/>
      </defs>
      <g>
       <use style="fill:#555555;stroke:#555555;stroke-width:0.8;" x="59.562198" xlink:href="#m100c3f12fc" y="276.48"/>
      </g>
     </g>
     <g id="text_1">
      <!-- 2014-12 -->
      <defs>
       <path d="M 19.1875 8.296875 
L 53.609375 8.296875 
L 53.609375 0 
L 7.328125 0 
L 7.328125 8.296875 
Q 12.9375 14.109375 22.625 23.890625 
Q 32.328125 33.6875 34.8125 36.53125 
Q 39.546875 41.84375 41.421875 45.53125 
Q 43.3125 49.21875 43.3125 52.78125 
Q 43.3125 58.59375 39.234375 62.25 
Q 35.15625 65.921875 28.609375 65.921875 
Q 23.96875 65.921875 18.8125 64.3125 
Q 13.671875 62.703125 7.8125 59.421875 
L 7.8125 69.390625 
Q 13.765625 71.78125 18.9375 73 
Q 24.125 74.21875 28.421875 74.21875 
Q 39.75 74.21875 46.484375 68.546875 
Q 53.21875 62.890625 53.21875 53.421875 
Q 53.21875 48.921875 51.53125 44.890625 
Q 49.859375 40.875 45.40625 35.40625 
Q 44.1875 33.984375 37.640625 27.21875 
Q 31.109375 20.453125 19.1875 8.296875 
z
" id="DejaVuSans-32"/>
       <path d="M 31.78125 66.40625 
Q 24.171875 66.40625 20.328125 58.90625 
Q 16.5 51.421875 16.5 36.375 
Q 16.5 21.390625 20.328125 13.890625 
Q 24.171875 6.390625 31.78125 6.390625 
Q 39.453125 6.390625 43.28125 13.890625 
Q 47.125 21.390625 47.125 36.375 
Q 47.125 51.421875 43.28125 58.90625 
Q 39.453125 66.40625 31.78125 66.40625 
z
M 31.78125 74.21875 
Q 44.046875 74.21875 50.515625 64.515625 
Q 56.984375 54.828125 56.984375 36.375 
Q 56.984375 17.96875 50.515625 8.265625 
Q 44.046875 -1.421875 31.78125 -1.421875 
Q 19.53125 -1.421875 13.0625 8.265625 
Q 6.59375 17.96875 6.59375 36.375 
Q 6.59375 54.828125 13.0625 64.515625 
Q 19.53125 74.21875 31.78125 74.21875 
z
" id="DejaVuSans-30"/>
       <path d="M 12.40625 8.296875 
L 28.515625 8.296875 
L 28.515625 63.921875 
L 10.984375 60.40625 
L 10.984375 69.390625 
L 28.421875 72.90625 
L 38.28125 72.90625 
L 38.28125 8.296875 
L 54.390625 8.296875 
L 54.390625 0 
L 12.40625 0 
z
" id="DejaVuSans-31"/>
       <path d="M 37.796875 64.3125 
L 12.890625 25.390625 
L 37.796875 25.390625 
z
M 35.203125 72.90625 
L 47.609375 72.90625 
L 47.609375 25.390625 
L 58.015625 25.390625 
L 58.015625 17.1875 
L 47.609375 17.1875 
L 47.609375 0 
L 37.796875 0 
L 37.796875 17.1875 
L 4.890625 17.1875 
L 4.890625 26.703125 
z
" id="DejaVuSans-34"/>
       <path d="M 4.890625 31.390625 
L 31.203125 31.390625 
L 31.203125 23.390625 
L 4.890625 23.390625 
z
" id="DejaVuSans-2d"/>
      </defs>
      <g style="fill:#555555;" transform="translate(28.546727 318.397817)rotate(-45)scale(0.1 -0.1)">
       <use xlink:href="#DejaVuSans-32"/>
       <use x="63.623047" xlink:href="#DejaVuSans-30"/>
       <use x="127.246094" xlink:href="#DejaVuSans-31"/>
       <use x="190.869141" xlink:href="#DejaVuSans-34"/>
       <use x="254.492188" xlink:href="#DejaVuSans-2d"/>
       <use x="290.576172" xlink:href="#DejaVuSans-31"/>
       <use x="354.199219" xlink:href="#DejaVuSans-32"/>
      </g>
     </g>
    </g>
    <g id="xtick_2">
     <g id="line2d_3">
      <path clip-path="url(#pb5a433994d)" d="M 99.698062 276.48 
L 99.698062 41.472 
" style="fill:none;stroke:#ffffff;stroke-linecap:square;stroke-width:0.8;"/>
     </g>
     <g id="line2d_4">
      <g>
       <use style="fill:#555555;stroke:#555555;stroke-width:0.8;" x="99.698062" xlink:href="#m100c3f12fc" y="276.48"/>
      </g>
     </g>
     <g id="text_2">
      <!-- 2015-03 -->
      <defs>
       <path d="M 10.796875 72.90625 
L 49.515625 72.90625 
L 49.515625 64.59375 
L 19.828125 64.59375 
L 19.828125 46.734375 
Q 21.96875 47.46875 24.109375 47.828125 
Q 26.265625 48.1875 28.421875 48.1875 
Q 40.625 48.1875 47.75 41.5 
Q 54.890625 34.8125 54.890625 23.390625 
Q 54.890625 11.625 47.5625 5.09375 
Q 40.234375 -1.421875 26.90625 -1.421875 
Q 22.3125 -1.421875 17.546875 -0.640625 
Q 12.796875 0.140625 7.71875 1.703125 
L 7.71875 11.625 
Q 12.109375 9.234375 16.796875 8.0625 
Q 21.484375 6.890625 26.703125 6.890625 
Q 35.15625 6.890625 40.078125 11.328125 
Q 45.015625 15.765625 45.015625 23.390625 
Q 45.015625 31 40.078125 35.4375 
Q 35.15625 39.890625 26.703125 39.890625 
Q 22.75 39.890625 18.8125 39.015625 
Q 14.890625 38.140625 10.796875 36.28125 
z
" id="DejaVuSans-35"/>
       <path d="M 40.578125 39.3125 
Q 47.65625 37.796875 51.625 33 
Q 55.609375 28.21875 55.609375 21.1875 
Q 55.609375 10.40625 48.1875 4.484375 
Q 40.765625 -1.421875 27.09375 -1.421875 
Q 22.515625 -1.421875 17.65625 -0.515625 
Q 12.796875 0.390625 7.625 2.203125 
L 7.625 11.71875 
Q 11.71875 9.328125 16.59375 8.109375 
Q 21.484375 6.890625 26.8125 6.890625 
Q 36.078125 6.890625 40.9375 10.546875 
Q 45.796875 14.203125 45.796875 21.1875 
Q 45.796875 27.640625 41.28125 31.265625 
Q 36.765625 34.90625 28.71875 34.90625 
L 20.21875 34.90625 
L 20.21875 43.015625 
L 29.109375 43.015625 
Q 36.375 43.015625 40.234375 45.921875 
Q 44.09375 48.828125 44.09375 54.296875 
Q 44.09375 59.90625 40.109375 62.90625 
Q 36.140625 65.921875 28.71875 65.921875 
Q 24.65625 65.921875 20.015625 65.03125 
Q 15.375 64.15625 9.8125 62.3125 
L 9.8125 71.09375 
Q 15.4375 72.65625 20.34375 73.4375 
Q 25.25 74.21875 29.59375 74.21875 
Q 40.828125 74.21875 47.359375 69.109375 
Q 53.90625 64.015625 53.90625 55.328125 
Q 53.90625 49.265625 50.4375 45.09375 
Q 46.96875 40.921875 40.578125 39.3125 
z
" id="DejaVuSans-33"/>
      </defs>
      <g style="fill:#555555;" transform="translate(68.682591 318.397817)rotate(-45)scale(0.1 -0.1)">
       <use xlink:href="#DejaVuSans-32"/>
       <use x="63.623047" xlink:href="#DejaVuSans-30"/>
       <use x="127.246094" xlink:href="#DejaVuSans-31"/>
       <use x="190.869141" xlink:href="#DejaVuSans-35"/>
       <use x="254.492188" xlink:href="#DejaVuSans-2d"/>
       <use x="290.576172" xlink:href="#DejaVuSans-30"/>
       <use x="354.199219" xlink:href="#DejaVuSans-33"/>
      </g>
     </g>
    </g>
    <g id="xtick_3">
     <g id="line2d_5">
      <path clip-path="url(#pb5a433994d)" d="M 140.725834 276.48 
L 140.725834 41.472 
" style="fill:none;stroke:#ffffff;stroke-linecap:square;stroke-width:0.8;"/>
     </g>
     <g id="line2d_6">
      <g>
       <use style="fill:#555555;stroke:#555555;stroke-width:0.8;" x="140.725834" xlink:href="#m100c3f12fc" y="276.48"/>
      </g>
     </g>
     <g id="text_3">
      <!-- 2015-06 -->
      <defs>
       <path d="M 33.015625 40.375 
Q 26.375 40.375 22.484375 35.828125 
Q 18.609375 31.296875 18.609375 23.390625 
Q 18.609375 15.53125 22.484375 10.953125 
Q 26.375 6.390625 33.015625 6.390625 
Q 39.65625 6.390625 43.53125 10.953125 
Q 47.40625 15.53125 47.40625 23.390625 
Q 47.40625 31.296875 43.53125 35.828125 
Q 39.65625 40.375 33.015625 40.375 
z
M 52.59375 71.296875 
L 52.59375 62.3125 
Q 48.875 64.0625 45.09375 64.984375 
Q 41.3125 65.921875 37.59375 65.921875 
Q 27.828125 65.921875 22.671875 59.328125 
Q 17.53125 52.734375 16.796875 39.40625 
Q 19.671875 43.65625 24.015625 45.921875 
Q 28.375 48.1875 33.59375 48.1875 
Q 44.578125 48.1875 50.953125 41.515625 
Q 57.328125 34.859375 57.328125 23.390625 
Q 57.328125 12.15625 50.6875 5.359375 
Q 44.046875 -1.421875 33.015625 -1.421875 
Q 20.359375 -1.421875 13.671875 8.265625 
Q 6.984375 17.96875 6.984375 36.375 
Q 6.984375 53.65625 15.1875 63.9375 
Q 23.390625 74.21875 37.203125 74.21875 
Q 40.921875 74.21875 44.703125 73.484375 
Q 48.484375 72.75 52.59375 71.296875 
z
" id="DejaVuSans-36"/>
      </defs>
      <g style="fill:#555555;" transform="translate(109.710363 318.397817)rotate(-45)scale(0.1 -0.1)">
       <use xlink:href="#DejaVuSans-32"/>
       <use x="63.623047" xlink:href="#DejaVuSans-30"/>
       <use x="127.246094" xlink:href="#DejaVuSans-31"/>
       <use x="190.869141" xlink:href="#DejaVuSans-35"/>
       <use x="254.492188" xlink:href="#DejaVuSans-2d"/>
       <use x="290.576172" xlink:href="#DejaVuSans-30"/>
       <use x="354.199219" xlink:href="#DejaVuSans-36"/>
      </g>
     </g>
    </g>
    <g id="xtick_4">
     <g id="line2d_7">
      <path clip-path="url(#pb5a433994d)" d="M 181.753606 276.48 
L 181.753606 41.472 
" style="fill:none;stroke:#ffffff;stroke-linecap:square;stroke-width:0.8;"/>
     </g>
     <g id="line2d_8">
      <g>
       <use style="fill:#555555;stroke:#555555;stroke-width:0.8;" x="181.753606" xlink:href="#m100c3f12fc" y="276.48"/>
      </g>
     </g>
     <g id="text_4">
      <!-- 2015-09 -->
      <defs>
       <path d="M 10.984375 1.515625 
L 10.984375 10.5 
Q 14.703125 8.734375 18.5 7.8125 
Q 22.3125 6.890625 25.984375 6.890625 
Q 35.75 6.890625 40.890625 13.453125 
Q 46.046875 20.015625 46.78125 33.40625 
Q 43.953125 29.203125 39.59375 26.953125 
Q 35.25 24.703125 29.984375 24.703125 
Q 19.046875 24.703125 12.671875 31.3125 
Q 6.296875 37.9375 6.296875 49.421875 
Q 6.296875 60.640625 12.9375 67.421875 
Q 19.578125 74.21875 30.609375 74.21875 
Q 43.265625 74.21875 49.921875 64.515625 
Q 56.59375 54.828125 56.59375 36.375 
Q 56.59375 19.140625 48.40625 8.859375 
Q 40.234375 -1.421875 26.421875 -1.421875 
Q 22.703125 -1.421875 18.890625 -0.6875 
Q 15.09375 0.046875 10.984375 1.515625 
z
M 30.609375 32.421875 
Q 37.25 32.421875 41.125 36.953125 
Q 45.015625 41.5 45.015625 49.421875 
Q 45.015625 57.28125 41.125 61.84375 
Q 37.25 66.40625 30.609375 66.40625 
Q 23.96875 66.40625 20.09375 61.84375 
Q 16.21875 57.28125 16.21875 49.421875 
Q 16.21875 41.5 20.09375 36.953125 
Q 23.96875 32.421875 30.609375 32.421875 
z
" id="DejaVuSans-39"/>
      </defs>
      <g style="fill:#555555;" transform="translate(150.738135 318.397817)rotate(-45)scale(0.1 -0.1)">
       <use xlink:href="#DejaVuSans-32"/>
       <use x="63.623047" xlink:href="#DejaVuSans-30"/>
       <use x="127.246094" xlink:href="#DejaVuSans-31"/>
       <use x="190.869141" xlink:href="#DejaVuSans-35"/>
       <use x="254.492188" xlink:href="#DejaVuSans-2d"/>
       <use x="290.576172" xlink:href="#DejaVuSans-30"/>
       <use x="354.199219" xlink:href="#DejaVuSans-39"/>
      </g>
     </g>
    </g>
    <g id="xtick_5">
     <g id="line2d_9">
      <path clip-path="url(#pb5a433994d)" d="M 222.335425 276.48 
L 222.335425 41.472 
" style="fill:none;stroke:#ffffff;stroke-linecap:square;stroke-width:0.8;"/>
     </g>
     <g id="line2d_10">
      <g>
       <use style="fill:#555555;stroke:#555555;stroke-width:0.8;" x="222.335425" xlink:href="#m100c3f12fc" y="276.48"/>
      </g>
     </g>
     <g id="text_5">
      <!-- 2015-12 -->
      <g style="fill:#555555;" transform="translate(191.319953 318.397817)rotate(-45)scale(0.1 -0.1)">
       <use xlink:href="#DejaVuSans-32"/>
       <use x="63.623047" xlink:href="#DejaVuSans-30"/>
       <use x="127.246094" xlink:href="#DejaVuSans-31"/>
       <use x="190.869141" xlink:href="#DejaVuSans-35"/>
       <use x="254.492188" xlink:href="#DejaVuSans-2d"/>
       <use x="290.576172" xlink:href="#DejaVuSans-31"/>
       <use x="354.199219" xlink:href="#DejaVuSans-32"/>
      </g>
     </g>
    </g>
    <g id="xtick_6">
     <g id="line2d_11">
      <path clip-path="url(#pb5a433994d)" d="M 262.917243 276.48 
L 262.917243 41.472 
" style="fill:none;stroke:#ffffff;stroke-linecap:square;stroke-width:0.8;"/>
     </g>
     <g id="line2d_12">
      <g>
       <use style="fill:#555555;stroke:#555555;stroke-width:0.8;" x="262.917243" xlink:href="#m100c3f12fc" y="276.48"/>
      </g>
     </g>
     <g id="text_6">
      <!-- 2016-03 -->
      <g style="fill:#555555;" transform="translate(231.901772 318.397817)rotate(-45)scale(0.1 -0.1)">
       <use xlink:href="#DejaVuSans-32"/>
       <use x="63.623047" xlink:href="#DejaVuSans-30"/>
       <use x="127.246094" xlink:href="#DejaVuSans-31"/>
       <use x="190.869141" xlink:href="#DejaVuSans-36"/>
       <use x="254.492188" xlink:href="#DejaVuSans-2d"/>
       <use x="290.576172" xlink:href="#DejaVuSans-30"/>
       <use x="354.199219" xlink:href="#DejaVuSans-33"/>
      </g>
     </g>
    </g>
    <g id="xtick_7">
     <g id="line2d_13">
      <path clip-path="url(#pb5a433994d)" d="M 303.945015 276.48 
L 303.945015 41.472 
" style="fill:none;stroke:#ffffff;stroke-linecap:square;stroke-width:0.8;"/>
     </g>
     <g id="line2d_14">
      <g>
       <use style="fill:#555555;stroke:#555555;stroke-width:0.8;" x="303.945015" xlink:href="#m100c3f12fc" y="276.48"/>
      </g>
     </g>
     <g id="text_7">
      <!-- 2016-06 -->
      <g style="fill:#555555;" transform="translate(272.929544 318.397817)rotate(-45)scale(0.1 -0.1)">
       <use xlink:href="#DejaVuSans-32"/>
       <use x="63.623047" xlink:href="#DejaVuSans-30"/>
       <use x="127.246094" xlink:href="#DejaVuSans-31"/>
       <use x="190.869141" xlink:href="#DejaVuSans-36"/>
       <use x="254.492188" xlink:href="#DejaVuSans-2d"/>
       <use x="290.576172" xlink:href="#DejaVuSans-30"/>
       <use x="354.199219" xlink:href="#DejaVuSans-36"/>
      </g>
     </g>
    </g>
    <g id="xtick_8">
     <g id="line2d_15">
      <path clip-path="url(#pb5a433994d)" d="M 344.972787 276.48 
L 344.972787 41.472 
" style="fill:none;stroke:#ffffff;stroke-linecap:square;stroke-width:0.8;"/>
     </g>
     <g id="line2d_16">
      <g>
       <use style="fill:#555555;stroke:#555555;stroke-width:0.8;" x="344.972787" xlink:href="#m100c3f12fc" y="276.48"/>
      </g>
     </g>
     <g id="text_8">
      <!-- 2016-09 -->
      <g style="fill:#555555;" transform="translate(313.957316 318.397817)rotate(-45)scale(0.1 -0.1)">
       <use xlink:href="#DejaVuSans-32"/>
       <use x="63.623047" xlink:href="#DejaVuSans-30"/>
       <use x="127.246094" xlink:href="#DejaVuSans-31"/>
       <use x="190.869141" xlink:href="#DejaVuSans-36"/>
       <use x="254.492188" xlink:href="#DejaVuSans-2d"/>
       <use x="290.576172" xlink:href="#DejaVuSans-30"/>
       <use x="354.199219" xlink:href="#DejaVuSans-39"/>
      </g>
     </g>
    </g>
    <g id="xtick_9">
     <g id="line2d_17">
      <path clip-path="url(#pb5a433994d)" d="M 385.554605 276.48 
L 385.554605 41.472 
" style="fill:none;stroke:#ffffff;stroke-linecap:square;stroke-width:0.8;"/>
     </g>
     <g id="line2d_18">
      <g>
       <use style="fill:#555555;stroke:#555555;stroke-width:0.8;" x="385.554605" xlink:href="#m100c3f12fc" y="276.48"/>
      </g>
     </g>
     <g id="text_9">
      <!-- 2016-12 -->
      <g style="fill:#555555;" transform="translate(354.539134 318.397817)rotate(-45)scale(0.1 -0.1)">
       <use xlink:href="#DejaVuSans-32"/>
       <use x="63.623047" xlink:href="#DejaVuSans-30"/>
       <use x="127.246094" xlink:href="#DejaVuSans-31"/>
       <use x="190.869141" xlink:href="#DejaVuSans-36"/>
       <use x="254.492188" xlink:href="#DejaVuSans-2d"/>
       <use x="290.576172" xlink:href="#DejaVuSans-31"/>
       <use x="354.199219" xlink:href="#DejaVuSans-32"/>
      </g>
     </g>
    </g>
    <g id="text_10">
     <!-- Date -->
     <defs>
      <path d="M 19.671875 64.796875 
L 19.671875 8.109375 
L 31.59375 8.109375 
Q 46.6875 8.109375 53.6875 14.9375 
Q 60.6875 21.78125 60.6875 36.53125 
Q 60.6875 51.171875 53.6875 57.984375 
Q 46.6875 64.796875 31.59375 64.796875 
z
M 9.8125 72.90625 
L 30.078125 72.90625 
Q 51.265625 72.90625 61.171875 64.09375 
Q 71.09375 55.28125 71.09375 36.53125 
Q 71.09375 17.671875 61.125 8.828125 
Q 51.171875 0 30.078125 0 
L 9.8125 0 
z
" id="DejaVuSans-44"/>
      <path d="M 34.28125 27.484375 
Q 23.390625 27.484375 19.1875 25 
Q 14.984375 22.515625 14.984375 16.5 
Q 14.984375 11.71875 18.140625 8.90625 
Q 21.296875 6.109375 26.703125 6.109375 
Q 34.1875 6.109375 38.703125 11.40625 
Q 43.21875 16.703125 43.21875 25.484375 
L 43.21875 27.484375 
z
M 52.203125 31.203125 
L 52.203125 0 
L 43.21875 0 
L 43.21875 8.296875 
Q 40.140625 3.328125 35.546875 0.953125 
Q 30.953125 -1.421875 24.3125 -1.421875 
Q 15.921875 -1.421875 10.953125 3.296875 
Q 6 8.015625 6 15.921875 
Q 6 25.140625 12.171875 29.828125 
Q 18.359375 34.515625 30.609375 34.515625 
L 43.21875 34.515625 
L 43.21875 35.40625 
Q 43.21875 41.609375 39.140625 45 
Q 35.0625 48.390625 27.6875 48.390625 
Q 23 48.390625 18.546875 47.265625 
Q 14.109375 46.140625 10.015625 43.890625 
L 10.015625 52.203125 
Q 14.9375 54.109375 19.578125 55.046875 
Q 24.21875 56 28.609375 56 
Q 40.484375 56 46.34375 49.84375 
Q 52.203125 43.703125 52.203125 31.203125 
z
" id="DejaVuSans-61"/>
      <path d="M 18.3125 70.21875 
L 18.3125 54.6875 
L 36.8125 54.6875 
L 36.8125 47.703125 
L 18.3125 47.703125 
L 18.3125 18.015625 
Q 18.3125 11.328125 20.140625 9.421875 
Q 21.96875 7.515625 27.59375 7.515625 
L 36.8125 7.515625 
L 36.8125 0 
L 27.59375 0 
Q 17.1875 0 13.234375 3.875 
Q 9.28125 7.765625 9.28125 18.015625 
L 9.28125 47.703125 
L 2.6875 47.703125 
L 2.6875 54.6875 
L 9.28125 54.6875 
L 9.28125 70.21875 
z
" id="DejaVuSans-74"/>
      <path d="M 56.203125 29.59375 
L 56.203125 25.203125 
L 14.890625 25.203125 
Q 15.484375 15.921875 20.484375 11.0625 
Q 25.484375 6.203125 34.421875 6.203125 
Q 39.59375 6.203125 44.453125 7.46875 
Q 49.3125 8.734375 54.109375 11.28125 
L 54.109375 2.78125 
Q 49.265625 0.734375 44.1875 -0.34375 
Q 39.109375 -1.421875 33.890625 -1.421875 
Q 20.796875 -1.421875 13.15625 6.1875 
Q 5.515625 13.8125 5.515625 26.8125 
Q 5.515625 40.234375 12.765625 48.109375 
Q 20.015625 56 32.328125 56 
Q 43.359375 56 49.78125 48.890625 
Q 56.203125 41.796875 56.203125 29.59375 
z
M 47.21875 32.234375 
Q 47.125 39.59375 43.09375 43.984375 
Q 39.0625 48.390625 32.421875 48.390625 
Q 24.90625 48.390625 20.390625 44.140625 
Q 15.875 39.890625 15.1875 32.171875 
z
" id="DejaVuSans-65"/>
     </defs>
     <g style="fill:#555555;" transform="translate(221.819063 332.986503)scale(0.12 -0.12)">
      <use xlink:href="#DejaVuSans-44"/>
      <use x="77.001953" xlink:href="#DejaVuSans-61"/>
      <use x="138.28125" xlink:href="#DejaVuSans-74"/>
      <use x="177.490234" xlink:href="#DejaVuSans-65"/>
     </g>
    </g>
   </g>
   <g id="matplotlib.axis_2">
    <g id="ytick_1">
     <g id="line2d_19">
      <path clip-path="url(#pb5a433994d)" d="M 57.6 251.95083 
L 414.72 251.95083 
" style="fill:none;stroke:#ffffff;stroke-linecap:square;stroke-width:0.8;"/>
     </g>
     <g id="line2d_20">
      <defs>
       <path d="M 0 0 
L -3.5 0 
" id="maed168aef2" style="stroke:#555555;stroke-width:0.8;"/>
      </defs>
      <g>
       <use style="fill:#555555;stroke:#555555;stroke-width:0.8;" x="57.6" xlink:href="#maed168aef2" y="251.95083"/>
      </g>
     </g>
     <g id="text_11">
      <!-- 3.6 -->
      <defs>
       <path d="M 10.6875 12.40625 
L 21 12.40625 
L 21 0 
L 10.6875 0 
z
" id="DejaVuSans-2e"/>
      </defs>
      <g style="fill:#555555;" transform="translate(34.696875 255.750049)scale(0.1 -0.1)">
       <use xlink:href="#DejaVuSans-33"/>
       <use x="63.623047" xlink:href="#DejaVuSans-2e"/>
       <use x="95.410156" xlink:href="#DejaVuSans-36"/>
      </g>
     </g>
    </g>
    <g id="ytick_2">
     <g id="line2d_21">
      <path clip-path="url(#pb5a433994d)" d="M 57.6 221.179746 
L 414.72 221.179746 
" style="fill:none;stroke:#ffffff;stroke-linecap:square;stroke-width:0.8;"/>
     </g>
     <g id="line2d_22">
      <g>
       <use style="fill:#555555;stroke:#555555;stroke-width:0.8;" x="57.6" xlink:href="#maed168aef2" y="221.179746"/>
      </g>
     </g>
     <g id="text_12">
      <!-- 3.7 -->
      <defs>
       <path d="M 8.203125 72.90625 
L 55.078125 72.90625 
L 55.078125 68.703125 
L 28.609375 0 
L 18.3125 0 
L 43.21875 64.59375 
L 8.203125 64.59375 
z
" id="DejaVuSans-37"/>
      </defs>
      <g style="fill:#555555;" transform="translate(34.696875 224.978965)scale(0.1 -0.1)">
       <use xlink:href="#DejaVuSans-33"/>
       <use x="63.623047" xlink:href="#DejaVuSans-2e"/>
       <use x="95.410156" xlink:href="#DejaVuSans-37"/>
      </g>
     </g>
    </g>
    <g id="ytick_3">
     <g id="line2d_23">
      <path clip-path="url(#pb5a433994d)" d="M 57.6 190.408662 
L 414.72 190.408662 
" style="fill:none;stroke:#ffffff;stroke-linecap:square;stroke-width:0.8;"/>
     </g>
     <g id="line2d_24">
      <g>
       <use style="fill:#555555;stroke:#555555;stroke-width:0.8;" x="57.6" xlink:href="#maed168aef2" y="190.408662"/>
      </g>
     </g>
     <g id="text_13">
      <!-- 3.8 -->
      <defs>
       <path d="M 31.78125 34.625 
Q 24.75 34.625 20.71875 30.859375 
Q 16.703125 27.09375 16.703125 20.515625 
Q 16.703125 13.921875 20.71875 10.15625 
Q 24.75 6.390625 31.78125 6.390625 
Q 38.8125 6.390625 42.859375 10.171875 
Q 46.921875 13.96875 46.921875 20.515625 
Q 46.921875 27.09375 42.890625 30.859375 
Q 38.875 34.625 31.78125 34.625 
z
M 21.921875 38.8125 
Q 15.578125 40.375 12.03125 44.71875 
Q 8.5 49.078125 8.5 55.328125 
Q 8.5 64.0625 14.71875 69.140625 
Q 20.953125 74.21875 31.78125 74.21875 
Q 42.671875 74.21875 48.875 69.140625 
Q 55.078125 64.0625 55.078125 55.328125 
Q 55.078125 49.078125 51.53125 44.71875 
Q 48 40.375 41.703125 38.8125 
Q 48.828125 37.15625 52.796875 32.3125 
Q 56.78125 27.484375 56.78125 20.515625 
Q 56.78125 9.90625 50.3125 4.234375 
Q 43.84375 -1.421875 31.78125 -1.421875 
Q 19.734375 -1.421875 13.25 4.234375 
Q 6.78125 9.90625 6.78125 20.515625 
Q 6.78125 27.484375 10.78125 32.3125 
Q 14.796875 37.15625 21.921875 38.8125 
z
M 18.3125 54.390625 
Q 18.3125 48.734375 21.84375 45.5625 
Q 25.390625 42.390625 31.78125 42.390625 
Q 38.140625 42.390625 41.71875 45.5625 
Q 45.3125 48.734375 45.3125 54.390625 
Q 45.3125 60.0625 41.71875 63.234375 
Q 38.140625 66.40625 31.78125 66.40625 
Q 25.390625 66.40625 21.84375 63.234375 
Q 18.3125 60.0625 18.3125 54.390625 
z
" id="DejaVuSans-38"/>
      </defs>
      <g style="fill:#555555;" transform="translate(34.696875 194.207881)scale(0.1 -0.1)">
       <use xlink:href="#DejaVuSans-33"/>
       <use x="63.623047" xlink:href="#DejaVuSans-2e"/>
       <use x="95.410156" xlink:href="#DejaVuSans-38"/>
      </g>
     </g>
    </g>
    <g id="ytick_4">
     <g id="line2d_25">
      <path clip-path="url(#pb5a433994d)" d="M 57.6 159.637578 
L 414.72 159.637578 
" style="fill:none;stroke:#ffffff;stroke-linecap:square;stroke-width:0.8;"/>
     </g>
     <g id="line2d_26">
      <g>
       <use style="fill:#555555;stroke:#555555;stroke-width:0.8;" x="57.6" xlink:href="#maed168aef2" y="159.637578"/>
      </g>
     </g>
     <g id="text_14">
      <!-- 3.9 -->
      <g style="fill:#555555;" transform="translate(34.696875 163.436797)scale(0.1 -0.1)">
       <use xlink:href="#DejaVuSans-33"/>
       <use x="63.623047" xlink:href="#DejaVuSans-2e"/>
       <use x="95.410156" xlink:href="#DejaVuSans-39"/>
      </g>
     </g>
    </g>
    <g id="ytick_5">
     <g id="line2d_27">
      <path clip-path="url(#pb5a433994d)" d="M 57.6 128.866494 
L 414.72 128.866494 
" style="fill:none;stroke:#ffffff;stroke-linecap:square;stroke-width:0.8;"/>
     </g>
     <g id="line2d_28">
      <g>
       <use style="fill:#555555;stroke:#555555;stroke-width:0.8;" x="57.6" xlink:href="#maed168aef2" y="128.866494"/>
      </g>
     </g>
     <g id="text_15">
      <!-- 4.0 -->
      <g style="fill:#555555;" transform="translate(34.696875 132.665713)scale(0.1 -0.1)">
       <use xlink:href="#DejaVuSans-34"/>
       <use x="63.623047" xlink:href="#DejaVuSans-2e"/>
       <use x="95.410156" xlink:href="#DejaVuSans-30"/>
      </g>
     </g>
    </g>
    <g id="ytick_6">
     <g id="line2d_29">
      <path clip-path="url(#pb5a433994d)" d="M 57.6 98.09541 
L 414.72 98.09541 
" style="fill:none;stroke:#ffffff;stroke-linecap:square;stroke-width:0.8;"/>
     </g>
     <g id="line2d_30">
      <g>
       <use style="fill:#555555;stroke:#555555;stroke-width:0.8;" x="57.6" xlink:href="#maed168aef2" y="98.09541"/>
      </g>
     </g>
     <g id="text_16">
      <!-- 4.1 -->
      <g style="fill:#555555;" transform="translate(34.696875 101.894629)scale(0.1 -0.1)">
       <use xlink:href="#DejaVuSans-34"/>
       <use x="63.623047" xlink:href="#DejaVuSans-2e"/>
       <use x="95.410156" xlink:href="#DejaVuSans-31"/>
      </g>
     </g>
    </g>
    <g id="ytick_7">
     <g id="line2d_31">
      <path clip-path="url(#pb5a433994d)" d="M 57.6 67.324326 
L 414.72 67.324326 
" style="fill:none;stroke:#ffffff;stroke-linecap:square;stroke-width:0.8;"/>
     </g>
     <g id="line2d_32">
      <g>
       <use style="fill:#555555;stroke:#555555;stroke-width:0.8;" x="57.6" xlink:href="#maed168aef2" y="67.324326"/>
      </g>
     </g>
     <g id="text_17">
      <!-- 4.2 -->
      <g style="fill:#555555;" transform="translate(34.696875 71.123545)scale(0.1 -0.1)">
       <use xlink:href="#DejaVuSans-34"/>
       <use x="63.623047" xlink:href="#DejaVuSans-2e"/>
       <use x="95.410156" xlink:href="#DejaVuSans-32"/>
      </g>
     </g>
    </g>
    <g id="text_18">
     <!-- Price -->
     <defs>
      <path d="M 19.671875 64.796875 
L 19.671875 37.40625 
L 32.078125 37.40625 
Q 38.96875 37.40625 42.71875 40.96875 
Q 46.484375 44.53125 46.484375 51.125 
Q 46.484375 57.671875 42.71875 61.234375 
Q 38.96875 64.796875 32.078125 64.796875 
z
M 9.8125 72.90625 
L 32.078125 72.90625 
Q 44.34375 72.90625 50.609375 67.359375 
Q 56.890625 61.8125 56.890625 51.125 
Q 56.890625 40.328125 50.609375 34.8125 
Q 44.34375 29.296875 32.078125 29.296875 
L 19.671875 29.296875 
L 19.671875 0 
L 9.8125 0 
z
" id="DejaVuSans-50"/>
      <path d="M 41.109375 46.296875 
Q 39.59375 47.171875 37.8125 47.578125 
Q 36.03125 48 33.890625 48 
Q 26.265625 48 22.1875 43.046875 
Q 18.109375 38.09375 18.109375 28.8125 
L 18.109375 0 
L 9.078125 0 
L 9.078125 54.6875 
L 18.109375 54.6875 
L 18.109375 46.1875 
Q 20.953125 51.171875 25.484375 53.578125 
Q 30.03125 56 36.53125 56 
Q 37.453125 56 38.578125 55.875 
Q 39.703125 55.765625 41.0625 55.515625 
z
" id="DejaVuSans-72"/>
      <path d="M 9.421875 54.6875 
L 18.40625 54.6875 
L 18.40625 0 
L 9.421875 0 
z
M 9.421875 75.984375 
L 18.40625 75.984375 
L 18.40625 64.59375 
L 9.421875 64.59375 
z
" id="DejaVuSans-69"/>
      <path d="M 48.78125 52.59375 
L 48.78125 44.1875 
Q 44.96875 46.296875 41.140625 47.34375 
Q 37.3125 48.390625 33.40625 48.390625 
Q 24.65625 48.390625 19.8125 42.84375 
Q 14.984375 37.3125 14.984375 27.296875 
Q 14.984375 17.28125 19.8125 11.734375 
Q 24.65625 6.203125 33.40625 6.203125 
Q 37.3125 6.203125 41.140625 7.25 
Q 44.96875 8.296875 48.78125 10.40625 
L 48.78125 2.09375 
Q 45.015625 0.34375 40.984375 -0.53125 
Q 36.96875 -1.421875 32.421875 -1.421875 
Q 20.0625 -1.421875 12.78125 6.34375 
Q 5.515625 14.109375 5.515625 27.296875 
Q 5.515625 40.671875 12.859375 48.328125 
Q 20.21875 56 33.015625 56 
Q 37.15625 56 41.109375 55.140625 
Q 45.0625 54.296875 48.78125 52.59375 
z
" id="DejaVuSans-63"/>
     </defs>
     <g style="fill:#555555;" transform="translate(28.20125 173.71725)rotate(-90)scale(0.12 -0.12)">
      <use xlink:href="#DejaVuSans-50"/>
      <use x="60.287109" xlink:href="#DejaVuSans-72"/>
      <use x="101.400391" xlink:href="#DejaVuSans-69"/>
      <use x="129.183594" xlink:href="#DejaVuSans-63"/>
      <use x="184.164062" xlink:href="#DejaVuSans-65"/>
     </g>
    </g>
   </g>
   <g id="line2d_33">
    <path clip-path="url(#pb5a433994d)" d="M 73.832727 260.412878 
L 75.170589 252.720107 
L 76.062498 240.411674 
L 76.508452 237.119168 
L 76.954406 244.196517 
L 78.292268 245.242734 
L 78.738222 244.196517 
L 79.184176 235.796011 
L 79.63013 233.857433 
L 80.076084 215.825578 
L 81.413946 215.764036 
L 81.8599 210.532951 
L 82.305854 210.163698 
L 82.751808 221.364373 
L 83.197762 200.040012 
L 84.535624 202.686325 
L 84.981578 210.471409 
L 85.427532 212.686927 
L 85.873487 208.317433 
L 86.319441 214.902445 
L 87.657303 227.303192 
L 88.103257 224.68765 
L 88.549211 238.411553 
L 88.995165 231.764999 
L 89.441119 239.796252 
L 90.778981 226.995481 
L 91.224935 214.410108 
L 91.670889 218.287264 
L 92.116843 223.456807 
L 92.562797 234.965192 
L 93.900659 231.488059 
L 94.346613 227.703216 
L 94.792567 227.8263 
L 95.238521 232.534276 
L 95.684476 224.41071 
L 97.468292 222.779843 
L 97.914246 231.980397 
L 98.3602 235.980638 
L 98.806154 221.795168 
L 100.144016 219.548879 
L 100.58997 215.33324 
L 101.035924 206.255771 
L 101.481878 205.024927 
L 101.927832 201.209313 
L 103.265694 193.793482 
L 103.711648 179.792638 
L 104.157602 156.83741 
L 104.603556 161.853096 
L 105.04951 155.298855 
L 106.387373 151.637096 
L 106.833327 158.591361 
L 107.279281 157.391289 
L 107.725235 172.069096 
L 108.171189 170.561313 
L 109.509051 184.869867 
L 109.955005 207.240445 
L 110.400959 210.256012 
L 110.846913 219.641192 
L 111.292867 193.793482 
L 112.630729 200.101554 
L 113.076683 186.562277 
L 113.522637 193.793482 
L 113.968591 205.055698 
L 114.414545 207.36353 
L 114.414545 207.36353 
L 116.198362 207.794325 
L 116.644316 217.02565 
L 117.09027 208.440518 
L 117.536224 193.670397 
L 118.874086 187.700807 
L 119.32004 190.377891 
L 120.211948 198.224518 
L 120.657902 212.656156 
L 121.995764 211.886879 
L 122.441718 212.717698 
L 122.887672 217.333361 
L 123.333626 209.763674 
L 123.77958 224.41071 
L 125.117443 217.641072 
L 126.455305 252.350854 
L 128.239121 242.104083 
L 129.131029 248.381385 
L 129.576983 257.181915 
L 130.022937 249.027577 
L 131.360799 236.90377 
L 131.806753 238.196156 
L 132.252707 242.719505 
L 132.698661 254.381746 
L 133.144615 260.597505 
L 134.482478 265.797818 
L 134.928432 247.273626 
L 135.374386 235.395987 
L 135.82034 233.334325 
L 136.266294 230.718782 
L 137.604156 205.794204 
L 138.05011 193.547313 
L 138.496064 193.301144 
L 138.942018 194.778156 
L 139.387972 200.532349 
L 140.725834 195.024325 
L 141.171788 200.378494 
L 141.617742 217.856469 
L 142.50965 222.749072 
L 143.847512 209.455963 
L 144.293467 221.949023 
L 144.739421 228.564807 
L 145.185375 226.810855 
L 145.631329 218.287264 
L 146.969191 224.102999 
L 147.415145 223.241409 
L 147.861099 225.087674 
L 148.307053 234.842108 
L 148.753007 224.903048 
L 150.090869 227.364734 
L 150.536823 219.948903 
L 150.982777 218.010325 
L 151.428731 211.794566 
L 151.874685 212.717698 
L 153.212547 200.532349 
L 154.104456 201.947819 
L 154.55041 194.747385 
L 154.996364 198.839939 
L 156.334226 191.639506 
L 156.78018 180.777313 
L 157.226134 183.485168 
L 157.672088 181.485048 
L 158.118042 199.363048 
L 159.455904 204.471048 
L 159.901858 201.332397 
L 160.347812 206.717337 
L 160.793766 199.824614 
L 161.23972 200.378494 
L 162.577582 194.470445 
L 163.023536 194.255048 
L 163.469491 201.824735 
L 163.915445 203.97871 
L 164.361399 201.055457 
L 165.699261 207.178903 
L 166.145215 211.856108 
L 166.591169 206.686566 
L 167.037123 197.978349 
L 167.483077 192.593409 
L 168.820939 199.486132 
L 169.266893 196.809048 
L 169.712847 179.361843 
L 170.158801 178.561795 
L 170.604755 180.377289 
L 171.942617 182.838976 
L 172.388571 187.731578 
L 172.834525 196.409024 
L 173.28048 201.947819 
L 173.726434 204.040253 
L 175.064296 202.317072 
L 175.51025 203.39406 
L 175.956204 199.086108 
L 176.402158 200.901602 
L 176.848112 211.702252 
L 178.185974 222.072108 
L 178.631928 233.088156 
L 179.077882 223.118325 
L 179.523836 207.332759 
L 179.96979 206.009602 
L 181.307652 197.178301 
L 181.753606 205.701891 
L 182.19956 201.917048 
L 182.645514 201.332397 
L 183.091469 191.885674 
L 184.429331 192.62418 
L 184.875285 194.162735 
L 185.321239 201.670879 
L 185.767193 201.240084 
L 186.213147 213.05618 
L 187.551009 217.364132 
L 187.996963 213.856228 
L 188.442917 211.486855 
L 188.888871 217.210277 
L 189.334825 229.24177 
L 190.672687 218.71806 
L 191.564595 196.532108 
L 192.010549 200.040012 
L 192.456503 196.009 
L 193.794366 194.685843 
L 194.24032 196.59365 
L 194.686274 197.978349 
L 195.132228 190.254807 
L 195.578182 189.547072 
L 196.916044 198.716855 
L 197.361998 193.793482 
L 197.807952 202.594012 
L 198.253906 204.471048 
L 198.69986 213.733144 
L 200.037722 216.625626 
L 200.483676 215.056301 
L 200.92963 217.210277 
L 201.375584 222.779843 
L 201.821538 213.702373 
L 203.159401 213.025409 
L 203.605355 209.332879 
L 204.051309 201.886277 
L 204.497263 196.378253 
L 204.943217 184.254446 
L 206.281079 170.561313 
L 206.727033 169.822807 
L 207.618941 160.437626 
L 208.064895 167.391891 
L 209.402757 172.253723 
L 209.848711 169.545867 
L 210.294665 163.453193 
L 210.740619 161.94541 
L 211.186573 157.329747 
L 212.524436 141.021072 
L 212.97039 142.09806 
L 213.862298 146.282928 
L 214.308252 147.698398 
L 215.646114 141.759578 
L 216.092068 135.789988 
L 216.538022 134.959169 
L 217.42993 137.913193 
L 218.767792 132.559024 
L 219.213746 128.220302 
L 219.6597 122.250711 
L 220.105654 119.696711 
L 220.551608 118.619723 
L 221.889471 119.512085 
L 222.335425 121.235265 
L 222.781379 119.481314 
L 223.227333 116.558061 
L 223.673287 140.95953 
L 225.011149 133.389844 
L 225.457103 132.651338 
L 225.903057 137.943964 
L 226.349011 141.144157 
L 226.794965 137.54394 
L 228.132827 138.251675 
L 228.578781 143.544301 
L 229.024735 139.821 
L 229.470689 139.759458 
L 229.916643 142.467313 
L 231.254505 153.483362 
L 231.70046 166.191819 
L 232.146414 163.576277 
L 232.592368 169.022759 
L 234.822138 170.130518 
L 235.268092 165.761024 
L 235.714046 159.299096 
L 237.497862 150.990904 
L 237.497862 150.990904 
L 237.943816 126.620205 
L 238.835724 126.250952 
L 239.281678 130.005024 
L 240.61954 126.250952 
L 241.065495 123.63541 
L 241.957403 129.174205 
L 242.403357 116.219579 
L 243.741219 94.002856 
L 244.187173 100.64941 
L 244.633127 101.880254 
L 245.079081 88.771772 
L 245.525035 97.141507 
L 247.308851 83.479145 
L 248.200759 102.034109 
L 248.646713 106.619001 
L 249.984575 109.234543 
L 250.430529 118.619723 
L 250.876484 118.865892 
L 251.322438 144.498205 
L 251.768392 146.713723 
L 253.106254 143.482759 
L 253.552208 135.913073 
L 253.998162 147.852253 
L 254.89007 157.360518 
L 256.227932 152.86794 
L 256.673886 147.20606 
L 257.11984 146.375241 
L 257.565794 146.836807 
L 258.011748 143.298133 
L 259.34961 147.606084 
L 259.795564 138.990181 
L 260.241518 134.928398 
L 260.687473 137.943964 
L 261.133427 142.867338 
L 262.471289 130.866615 
L 262.917243 131.205097 
L 263.809151 134.866856 
L 264.255105 142.867338 
L 265.592967 143.79047 
L 266.038921 149.390807 
L 266.484875 147.483 
L 266.930829 149.790831 
L 267.376783 162.622373 
L 268.714645 175.946253 
L 269.160599 170.438229 
L 269.606553 167.36112 
L 270.052507 189.270132 
L 270.498462 194.03965 
L 271.836324 195.393578 
L 272.282278 190.254807 
L 272.728232 190.100951 
L 273.174186 183.023602 
L 273.62014 185.054494 
L 275.403956 189.270132 
L 275.84991 205.94806 
L 276.295864 203.024807 
L 276.741818 215.240927 
L 278.07968 213.363891 
L 278.525634 210.809891 
L 278.525634 210.809891 
L 278.971588 205.486493 
L 279.417542 208.440518 
L 279.863497 199.609216 
L 281.201359 203.11712 
L 281.647313 206.101915 
L 282.093267 197.455241 
L 282.539221 185.054494 
L 282.985175 184.992952 
L 284.323037 190.100951 
L 285.214945 195.270494 
L 285.660899 190.993313 
L 286.106853 178.131 
L 287.444715 160.806879 
L 287.890669 161.637699 
L 288.336623 166.007193 
L 288.782577 169.022759 
L 289.228531 167.699602 
L 290.566394 184.408301 
L 291.458302 181.177337 
L 291.904256 175.792397 
L 292.35021 167.884229 
L 293.688072 167.945771 
L 294.134026 164.160928 
L 294.57998 164.099385 
L 296.80975 171.176735 
L 297.255704 174.776952 
L 297.701658 159.483723 
L 298.147612 154.683434 
L 298.593566 148.62153 
L 299.931429 143.852012 
L 300.377383 135.359193 
L 300.823337 138.590157 
L 301.715245 147.544542 
L 303.053107 145.175169 
L 303.499061 148.283048 
L 303.945015 148.867699 
L 304.390969 153.360277 
L 304.836923 147.821482 
L 306.620739 181.238879 
L 307.066693 185.793 
L 307.512647 186.531506 
L 307.958601 173.638422 
L 309.296464 161.39153 
L 309.742418 144.775145 
L 310.188372 148.836928 
L 310.634326 145.20594 
L 311.08028 146.959892 
L 312.418142 168.130397 
L 312.864096 167.607289 
L 313.31005 161.329988 
L 313.756004 172.16141 
L 314.201958 129.051121 
L 315.53982 120.773699 
L 315.985774 127.943362 
L 316.877682 134.928398 
L 317.323636 142.775024 
L 318.661499 132.374398 
L 319.107453 130.005024 
L 319.553407 121.943 
L 319.553407 121.943 
L 319.999361 127.758735 
L 320.445315 128.835723 
L 321.783177 127.020229 
L 322.229131 134.805314 
L 322.675085 134.743771 
L 323.121039 138.68247 
L 323.566993 141.23647 
L 324.904855 133.389844 
L 325.350809 141.728807 
L 325.796763 135.328422 
L 326.242717 138.559386 
L 326.688671 144.128952 
L 328.026533 138.190133 
L 328.472488 138.651699 
L 328.918442 136.897747 
L 329.364396 147.667627 
L 329.81035 148.436904 
L 331.148212 158.406735 
L 331.594166 165.176373 
L 332.04012 174.530783 
L 332.486074 172.315265 
L 332.932028 173.730735 
L 334.26989 168.684277 
L 335.161798 182.715891 
L 335.607752 181.26965 
L 336.053706 183.669795 
L 337.837522 192.593409 
L 338.283477 188.100831 
L 338.729431 195.762831 
L 339.175385 193.331915 
L 340.513247 187.639265 
L 340.959201 188.531626 
L 341.405155 185.054494 
L 341.851109 184.562156 
L 342.297063 180.315747 
L 343.634925 166.130277 
L 344.080879 164.007072 
L 344.526833 157.114349 
L 344.972787 156.068133 
L 345.418741 154.591121 
L 347.202557 163.66859 
L 347.648511 174.561554 
L 348.094466 182.562036 
L 348.54042 178.561795 
L 349.878282 169.853578 
L 350.324236 167.822687 
L 350.77019 168.376566 
L 351.216144 172.346036 
L 351.662098 175.115434 
L 352.99996 172.376807 
L 353.445914 176.930928 
L 353.891868 171.915241 
L 354.337822 186.469964 
L 354.783776 180.315747 
L 356.121638 180.438831 
L 356.567592 183.423626 
L 357.013546 182.285096 
L 357.4595 179.515699 
L 357.905455 173.238397 
L 359.243317 182.654349 
L 359.689271 175.884711 
L 360.135225 180.96194 
L 361.027133 174.869265 
L 362.364995 180.96194 
L 362.810949 175.423144 
L 363.702857 154.591121 
L 364.148811 160.714566 
L 365.486673 151.483241 
L 365.932627 155.083458 
L 366.378581 150.867819 
L 366.824535 148.590759 
L 367.27049 135.020711 
L 368.608352 138.40553 
L 369.054306 142.92888 
L 369.50026 143.728928 
L 369.946214 136.251554 
L 371.73003 144.621289 
L 372.621938 161.053048 
L 373.067892 160.714566 
L 373.513846 163.883988 
L 374.851708 155.575795 
L 375.297662 154.437265 
L 375.743616 150.252398 
L 376.18957 133.29753 
L 377.973387 104.095772 
L 378.419341 103.111097 
L 378.865295 86.402398 
L 379.311249 86.556254 
L 379.757203 68.309001 
L 381.095065 75.078639 
L 381.541019 82.494471 
L 381.986973 80.002013 
L 382.432927 71.016856 
L 382.878881 78.771169 
L 384.216743 82.063675 
L 384.662697 72.647724 
L 385.108651 75.909459 
L 385.554605 67.72435 
L 386.000559 62.708664 
L 387.338422 60.770085 
L 387.784376 72.709266 
L 388.23033 89.84876 
L 388.676284 94.802904 
L 389.122238 74.340133 
L 390.4601 64.554929 
L 390.906054 70.247579 
L 391.352008 74.463218 
L 391.797962 57.20064 
L 392.243916 58.216085 
L 393.581778 59.4777 
L 394.027732 52.154182 
L 394.473686 52.431122 
L 394.91964 60.493146 
L 395.365594 61.200881 
L 397.149411 63.631796 
L 397.595365 59.323844 
L 398.041319 62.370182 
L 398.487273 73.693941 
L 398.487273 73.693941 
" style="fill:none;stroke:#ff0000;stroke-linecap:square;stroke-width:1.5;"/>
    <defs>
     <path d="M 0 3 
C 0.795609 3 1.55874 2.683901 2.12132 2.12132 
C 2.683901 1.55874 3 0.795609 3 0 
C 3 -0.795609 2.683901 -1.55874 2.12132 -2.12132 
C 1.55874 -2.683901 0.795609 -3 0 -3 
C -0.795609 -3 -1.55874 -2.683901 -2.12132 -2.12132 
C -2.683901 -1.55874 -3 -0.795609 -3 0 
C -3 0.795609 -2.683901 1.55874 -2.12132 2.12132 
C -1.55874 2.683901 -0.795609 3 0 3 
z
" id="maaad25c343" style="stroke:#ff0000;"/>
    </defs>
    <g clip-path="url(#pb5a433994d)">
     <use style="fill:#ff0000;stroke:#ff0000;" x="73.832727" xlink:href="#maaad25c343" y="260.412878"/>
     <use style="fill:#ff0000;stroke:#ff0000;" x="75.170589" xlink:href="#maaad25c343" y="252.720107"/>
     <use style="fill:#ff0000;stroke:#ff0000;" x="76.062498" xlink:href="#maaad25c343" y="240.411674"/>
     <use style="fill:#ff0000;stroke:#ff0000;" x="76.508452" xlink:href="#maaad25c343" y="237.119168"/>
     <use style="fill:#ff0000;stroke:#ff0000;" x="76.954406" xlink:href="#maaad25c343" y="244.196517"/>
     <use style="fill:#ff0000;stroke:#ff0000;" x="78.292268" xlink:href="#maaad25c343" y="245.242734"/>
     <use style="fill:#ff0000;stroke:#ff0000;" x="78.738222" xlink:href="#maaad25c343" y="244.196517"/>
     <use style="fill:#ff0000;stroke:#ff0000;" x="79.184176" xlink:href="#maaad25c343" y="235.796011"/>
     <use style="fill:#ff0000;stroke:#ff0000;" x="79.63013" xlink:href="#maaad25c343" y="233.857433"/>
     <use style="fill:#ff0000;stroke:#ff0000;" x="80.076084" xlink:href="#maaad25c343" y="215.825578"/>
     <use style="fill:#ff0000;stroke:#ff0000;" x="81.413946" xlink:href="#maaad25c343" y="215.764036"/>
     <use style="fill:#ff0000;stroke:#ff0000;" x="81.8599" xlink:href="#maaad25c343" y="210.532951"/>
     <use style="fill:#ff0000;stroke:#ff0000;" x="82.305854" xlink:href="#maaad25c343" y="210.163698"/>
     <use style="fill:#ff0000;stroke:#ff0000;" x="82.751808" xlink:href="#maaad25c343" y="221.364373"/>
     <use style="fill:#ff0000;stroke:#ff0000;" x="83.197762" xlink:href="#maaad25c343" y="200.040012"/>
     <use style="fill:#ff0000;stroke:#ff0000;" x="84.535624" xlink:href="#maaad25c343" y="202.686325"/>
     <use style="fill:#ff0000;stroke:#ff0000;" x="84.981578" xlink:href="#maaad25c343" y="210.471409"/>
     <use style="fill:#ff0000;stroke:#ff0000;" x="85.427532" xlink:href="#maaad25c343" y="212.686927"/>
     <use style="fill:#ff0000;stroke:#ff0000;" x="85.873487" xlink:href="#maaad25c343" y="208.317433"/>
     <use style="fill:#ff0000;stroke:#ff0000;" x="86.319441" xlink:href="#maaad25c343" y="214.902445"/>
     <use style="fill:#ff0000;stroke:#ff0000;" x="87.657303" xlink:href="#maaad25c343" y="227.303192"/>
     <use style="fill:#ff0000;stroke:#ff0000;" x="88.103257" xlink:href="#maaad25c343" y="224.68765"/>
     <use style="fill:#ff0000;stroke:#ff0000;" x="88.549211" xlink:href="#maaad25c343" y="238.411553"/>
     <use style="fill:#ff0000;stroke:#ff0000;" x="88.995165" xlink:href="#maaad25c343" y="231.764999"/>
     <use style="fill:#ff0000;stroke:#ff0000;" x="89.441119" xlink:href="#maaad25c343" y="239.796252"/>
     <use style="fill:#ff0000;stroke:#ff0000;" x="90.778981" xlink:href="#maaad25c343" y="226.995481"/>
     <use style="fill:#ff0000;stroke:#ff0000;" x="91.224935" xlink:href="#maaad25c343" y="214.410108"/>
     <use style="fill:#ff0000;stroke:#ff0000;" x="91.670889" xlink:href="#maaad25c343" y="218.287264"/>
     <use style="fill:#ff0000;stroke:#ff0000;" x="92.116843" xlink:href="#maaad25c343" y="223.456807"/>
     <use style="fill:#ff0000;stroke:#ff0000;" x="92.562797" xlink:href="#maaad25c343" y="234.965192"/>
     <use style="fill:#ff0000;stroke:#ff0000;" x="93.900659" xlink:href="#maaad25c343" y="231.488059"/>
     <use style="fill:#ff0000;stroke:#ff0000;" x="94.346613" xlink:href="#maaad25c343" y="227.703216"/>
     <use style="fill:#ff0000;stroke:#ff0000;" x="94.792567" xlink:href="#maaad25c343" y="227.8263"/>
     <use style="fill:#ff0000;stroke:#ff0000;" x="95.238521" xlink:href="#maaad25c343" y="232.534276"/>
     <use style="fill:#ff0000;stroke:#ff0000;" x="95.684476" xlink:href="#maaad25c343" y="224.41071"/>
     <use style="fill:#ff0000;stroke:#ff0000;" x="97.022338" xlink:href="#maaad25c343" y="223.241409"/>
     <use style="fill:#ff0000;stroke:#ff0000;" x="97.468292" xlink:href="#maaad25c343" y="222.779843"/>
     <use style="fill:#ff0000;stroke:#ff0000;" x="97.914246" xlink:href="#maaad25c343" y="231.980397"/>
     <use style="fill:#ff0000;stroke:#ff0000;" x="98.3602" xlink:href="#maaad25c343" y="235.980638"/>
     <use style="fill:#ff0000;stroke:#ff0000;" x="98.806154" xlink:href="#maaad25c343" y="221.795168"/>
     <use style="fill:#ff0000;stroke:#ff0000;" x="100.144016" xlink:href="#maaad25c343" y="219.548879"/>
     <use style="fill:#ff0000;stroke:#ff0000;" x="100.58997" xlink:href="#maaad25c343" y="215.33324"/>
     <use style="fill:#ff0000;stroke:#ff0000;" x="101.035924" xlink:href="#maaad25c343" y="206.255771"/>
     <use style="fill:#ff0000;stroke:#ff0000;" x="101.481878" xlink:href="#maaad25c343" y="205.024927"/>
     <use style="fill:#ff0000;stroke:#ff0000;" x="101.927832" xlink:href="#maaad25c343" y="201.209313"/>
     <use style="fill:#ff0000;stroke:#ff0000;" x="103.265694" xlink:href="#maaad25c343" y="193.793482"/>
     <use style="fill:#ff0000;stroke:#ff0000;" x="103.711648" xlink:href="#maaad25c343" y="179.792638"/>
     <use style="fill:#ff0000;stroke:#ff0000;" x="104.157602" xlink:href="#maaad25c343" y="156.83741"/>
     <use style="fill:#ff0000;stroke:#ff0000;" x="104.603556" xlink:href="#maaad25c343" y="161.853096"/>
     <use style="fill:#ff0000;stroke:#ff0000;" x="105.04951" xlink:href="#maaad25c343" y="155.298855"/>
     <use style="fill:#ff0000;stroke:#ff0000;" x="106.387373" xlink:href="#maaad25c343" y="151.637096"/>
     <use style="fill:#ff0000;stroke:#ff0000;" x="106.833327" xlink:href="#maaad25c343" y="158.591361"/>
     <use style="fill:#ff0000;stroke:#ff0000;" x="107.279281" xlink:href="#maaad25c343" y="157.391289"/>
     <use style="fill:#ff0000;stroke:#ff0000;" x="107.725235" xlink:href="#maaad25c343" y="172.069096"/>
     <use style="fill:#ff0000;stroke:#ff0000;" x="108.171189" xlink:href="#maaad25c343" y="170.561313"/>
     <use style="fill:#ff0000;stroke:#ff0000;" x="109.509051" xlink:href="#maaad25c343" y="184.869867"/>
     <use style="fill:#ff0000;stroke:#ff0000;" x="109.955005" xlink:href="#maaad25c343" y="207.240445"/>
     <use style="fill:#ff0000;stroke:#ff0000;" x="110.400959" xlink:href="#maaad25c343" y="210.256012"/>
     <use style="fill:#ff0000;stroke:#ff0000;" x="110.846913" xlink:href="#maaad25c343" y="219.641192"/>
     <use style="fill:#ff0000;stroke:#ff0000;" x="111.292867" xlink:href="#maaad25c343" y="193.793482"/>
     <use style="fill:#ff0000;stroke:#ff0000;" x="112.630729" xlink:href="#maaad25c343" y="200.101554"/>
     <use style="fill:#ff0000;stroke:#ff0000;" x="113.076683" xlink:href="#maaad25c343" y="186.562277"/>
     <use style="fill:#ff0000;stroke:#ff0000;" x="113.522637" xlink:href="#maaad25c343" y="193.793482"/>
     <use style="fill:#ff0000;stroke:#ff0000;" x="113.968591" xlink:href="#maaad25c343" y="205.055698"/>
     <use style="fill:#ff0000;stroke:#ff0000;" x="114.414545" xlink:href="#maaad25c343" y="207.36353"/>
     <use style="fill:#ff0000;stroke:#ff0000;" x="114.414545" xlink:href="#maaad25c343" y="207.36353"/>
     <use style="fill:#ff0000;stroke:#ff0000;" x="116.198362" xlink:href="#maaad25c343" y="207.794325"/>
     <use style="fill:#ff0000;stroke:#ff0000;" x="116.644316" xlink:href="#maaad25c343" y="217.02565"/>
     <use style="fill:#ff0000;stroke:#ff0000;" x="117.09027" xlink:href="#maaad25c343" y="208.440518"/>
     <use style="fill:#ff0000;stroke:#ff0000;" x="117.536224" xlink:href="#maaad25c343" y="193.670397"/>
     <use style="fill:#ff0000;stroke:#ff0000;" x="118.874086" xlink:href="#maaad25c343" y="187.700807"/>
     <use style="fill:#ff0000;stroke:#ff0000;" x="119.32004" xlink:href="#maaad25c343" y="190.377891"/>
     <use style="fill:#ff0000;stroke:#ff0000;" x="119.765994" xlink:href="#maaad25c343" y="194.255048"/>
     <use style="fill:#ff0000;stroke:#ff0000;" x="120.211948" xlink:href="#maaad25c343" y="198.224518"/>
     <use style="fill:#ff0000;stroke:#ff0000;" x="120.657902" xlink:href="#maaad25c343" y="212.656156"/>
     <use style="fill:#ff0000;stroke:#ff0000;" x="121.995764" xlink:href="#maaad25c343" y="211.886879"/>
     <use style="fill:#ff0000;stroke:#ff0000;" x="122.441718" xlink:href="#maaad25c343" y="212.717698"/>
     <use style="fill:#ff0000;stroke:#ff0000;" x="122.887672" xlink:href="#maaad25c343" y="217.333361"/>
     <use style="fill:#ff0000;stroke:#ff0000;" x="123.333626" xlink:href="#maaad25c343" y="209.763674"/>
     <use style="fill:#ff0000;stroke:#ff0000;" x="123.77958" xlink:href="#maaad25c343" y="224.41071"/>
     <use style="fill:#ff0000;stroke:#ff0000;" x="125.117443" xlink:href="#maaad25c343" y="217.641072"/>
     <use style="fill:#ff0000;stroke:#ff0000;" x="125.563397" xlink:href="#maaad25c343" y="228.841746"/>
     <use style="fill:#ff0000;stroke:#ff0000;" x="126.009351" xlink:href="#maaad25c343" y="239.765481"/>
     <use style="fill:#ff0000;stroke:#ff0000;" x="126.455305" xlink:href="#maaad25c343" y="252.350854"/>
     <use style="fill:#ff0000;stroke:#ff0000;" x="128.239121" xlink:href="#maaad25c343" y="242.104083"/>
     <use style="fill:#ff0000;stroke:#ff0000;" x="128.685075" xlink:href="#maaad25c343" y="245.642758"/>
     <use style="fill:#ff0000;stroke:#ff0000;" x="129.131029" xlink:href="#maaad25c343" y="248.381385"/>
     <use style="fill:#ff0000;stroke:#ff0000;" x="129.576983" xlink:href="#maaad25c343" y="257.181915"/>
     <use style="fill:#ff0000;stroke:#ff0000;" x="130.022937" xlink:href="#maaad25c343" y="249.027577"/>
     <use style="fill:#ff0000;stroke:#ff0000;" x="131.360799" xlink:href="#maaad25c343" y="236.90377"/>
     <use style="fill:#ff0000;stroke:#ff0000;" x="131.806753" xlink:href="#maaad25c343" y="238.196156"/>
     <use style="fill:#ff0000;stroke:#ff0000;" x="132.252707" xlink:href="#maaad25c343" y="242.719505"/>
     <use style="fill:#ff0000;stroke:#ff0000;" x="132.698661" xlink:href="#maaad25c343" y="254.381746"/>
     <use style="fill:#ff0000;stroke:#ff0000;" x="133.144615" xlink:href="#maaad25c343" y="260.597505"/>
     <use style="fill:#ff0000;stroke:#ff0000;" x="134.482478" xlink:href="#maaad25c343" y="265.797818"/>
     <use style="fill:#ff0000;stroke:#ff0000;" x="134.928432" xlink:href="#maaad25c343" y="247.273626"/>
     <use style="fill:#ff0000;stroke:#ff0000;" x="135.374386" xlink:href="#maaad25c343" y="235.395987"/>
     <use style="fill:#ff0000;stroke:#ff0000;" x="135.82034" xlink:href="#maaad25c343" y="233.334325"/>
     <use style="fill:#ff0000;stroke:#ff0000;" x="136.266294" xlink:href="#maaad25c343" y="230.718782"/>
     <use style="fill:#ff0000;stroke:#ff0000;" x="137.604156" xlink:href="#maaad25c343" y="205.794204"/>
     <use style="fill:#ff0000;stroke:#ff0000;" x="138.05011" xlink:href="#maaad25c343" y="193.547313"/>
     <use style="fill:#ff0000;stroke:#ff0000;" x="138.496064" xlink:href="#maaad25c343" y="193.301144"/>
     <use style="fill:#ff0000;stroke:#ff0000;" x="138.942018" xlink:href="#maaad25c343" y="194.778156"/>
     <use style="fill:#ff0000;stroke:#ff0000;" x="139.387972" xlink:href="#maaad25c343" y="200.532349"/>
     <use style="fill:#ff0000;stroke:#ff0000;" x="140.725834" xlink:href="#maaad25c343" y="195.024325"/>
     <use style="fill:#ff0000;stroke:#ff0000;" x="141.171788" xlink:href="#maaad25c343" y="200.378494"/>
     <use style="fill:#ff0000;stroke:#ff0000;" x="141.617742" xlink:href="#maaad25c343" y="217.856469"/>
     <use style="fill:#ff0000;stroke:#ff0000;" x="142.50965" xlink:href="#maaad25c343" y="222.749072"/>
     <use style="fill:#ff0000;stroke:#ff0000;" x="143.847512" xlink:href="#maaad25c343" y="209.455963"/>
     <use style="fill:#ff0000;stroke:#ff0000;" x="144.293467" xlink:href="#maaad25c343" y="221.949023"/>
     <use style="fill:#ff0000;stroke:#ff0000;" x="144.739421" xlink:href="#maaad25c343" y="228.564807"/>
     <use style="fill:#ff0000;stroke:#ff0000;" x="145.185375" xlink:href="#maaad25c343" y="226.810855"/>
     <use style="fill:#ff0000;stroke:#ff0000;" x="145.631329" xlink:href="#maaad25c343" y="218.287264"/>
     <use style="fill:#ff0000;stroke:#ff0000;" x="146.969191" xlink:href="#maaad25c343" y="224.102999"/>
     <use style="fill:#ff0000;stroke:#ff0000;" x="147.415145" xlink:href="#maaad25c343" y="223.241409"/>
     <use style="fill:#ff0000;stroke:#ff0000;" x="147.861099" xlink:href="#maaad25c343" y="225.087674"/>
     <use style="fill:#ff0000;stroke:#ff0000;" x="148.307053" xlink:href="#maaad25c343" y="234.842108"/>
     <use style="fill:#ff0000;stroke:#ff0000;" x="148.753007" xlink:href="#maaad25c343" y="224.903048"/>
     <use style="fill:#ff0000;stroke:#ff0000;" x="150.090869" xlink:href="#maaad25c343" y="227.364734"/>
     <use style="fill:#ff0000;stroke:#ff0000;" x="150.536823" xlink:href="#maaad25c343" y="219.948903"/>
     <use style="fill:#ff0000;stroke:#ff0000;" x="150.982777" xlink:href="#maaad25c343" y="218.010325"/>
     <use style="fill:#ff0000;stroke:#ff0000;" x="151.428731" xlink:href="#maaad25c343" y="211.794566"/>
     <use style="fill:#ff0000;stroke:#ff0000;" x="151.874685" xlink:href="#maaad25c343" y="212.717698"/>
     <use style="fill:#ff0000;stroke:#ff0000;" x="153.212547" xlink:href="#maaad25c343" y="200.532349"/>
     <use style="fill:#ff0000;stroke:#ff0000;" x="153.658501" xlink:href="#maaad25c343" y="201.332397"/>
     <use style="fill:#ff0000;stroke:#ff0000;" x="154.104456" xlink:href="#maaad25c343" y="201.947819"/>
     <use style="fill:#ff0000;stroke:#ff0000;" x="154.55041" xlink:href="#maaad25c343" y="194.747385"/>
     <use style="fill:#ff0000;stroke:#ff0000;" x="154.996364" xlink:href="#maaad25c343" y="198.839939"/>
     <use style="fill:#ff0000;stroke:#ff0000;" x="156.334226" xlink:href="#maaad25c343" y="191.639506"/>
     <use style="fill:#ff0000;stroke:#ff0000;" x="156.78018" xlink:href="#maaad25c343" y="180.777313"/>
     <use style="fill:#ff0000;stroke:#ff0000;" x="157.226134" xlink:href="#maaad25c343" y="183.485168"/>
     <use style="fill:#ff0000;stroke:#ff0000;" x="157.672088" xlink:href="#maaad25c343" y="181.485048"/>
     <use style="fill:#ff0000;stroke:#ff0000;" x="158.118042" xlink:href="#maaad25c343" y="199.363048"/>
     <use style="fill:#ff0000;stroke:#ff0000;" x="159.455904" xlink:href="#maaad25c343" y="204.471048"/>
     <use style="fill:#ff0000;stroke:#ff0000;" x="159.901858" xlink:href="#maaad25c343" y="201.332397"/>
     <use style="fill:#ff0000;stroke:#ff0000;" x="160.347812" xlink:href="#maaad25c343" y="206.717337"/>
     <use style="fill:#ff0000;stroke:#ff0000;" x="160.793766" xlink:href="#maaad25c343" y="199.824614"/>
     <use style="fill:#ff0000;stroke:#ff0000;" x="161.23972" xlink:href="#maaad25c343" y="200.378494"/>
     <use style="fill:#ff0000;stroke:#ff0000;" x="162.577582" xlink:href="#maaad25c343" y="194.470445"/>
     <use style="fill:#ff0000;stroke:#ff0000;" x="163.023536" xlink:href="#maaad25c343" y="194.255048"/>
     <use style="fill:#ff0000;stroke:#ff0000;" x="163.469491" xlink:href="#maaad25c343" y="201.824735"/>
     <use style="fill:#ff0000;stroke:#ff0000;" x="163.915445" xlink:href="#maaad25c343" y="203.97871"/>
     <use style="fill:#ff0000;stroke:#ff0000;" x="164.361399" xlink:href="#maaad25c343" y="201.055457"/>
     <use style="fill:#ff0000;stroke:#ff0000;" x="165.699261" xlink:href="#maaad25c343" y="207.178903"/>
     <use style="fill:#ff0000;stroke:#ff0000;" x="166.145215" xlink:href="#maaad25c343" y="211.856108"/>
     <use style="fill:#ff0000;stroke:#ff0000;" x="166.591169" xlink:href="#maaad25c343" y="206.686566"/>
     <use style="fill:#ff0000;stroke:#ff0000;" x="167.037123" xlink:href="#maaad25c343" y="197.978349"/>
     <use style="fill:#ff0000;stroke:#ff0000;" x="167.483077" xlink:href="#maaad25c343" y="192.593409"/>
     <use style="fill:#ff0000;stroke:#ff0000;" x="168.820939" xlink:href="#maaad25c343" y="199.486132"/>
     <use style="fill:#ff0000;stroke:#ff0000;" x="169.266893" xlink:href="#maaad25c343" y="196.809048"/>
     <use style="fill:#ff0000;stroke:#ff0000;" x="169.712847" xlink:href="#maaad25c343" y="179.361843"/>
     <use style="fill:#ff0000;stroke:#ff0000;" x="170.158801" xlink:href="#maaad25c343" y="178.561795"/>
     <use style="fill:#ff0000;stroke:#ff0000;" x="170.604755" xlink:href="#maaad25c343" y="180.377289"/>
     <use style="fill:#ff0000;stroke:#ff0000;" x="171.942617" xlink:href="#maaad25c343" y="182.838976"/>
     <use style="fill:#ff0000;stroke:#ff0000;" x="172.388571" xlink:href="#maaad25c343" y="187.731578"/>
     <use style="fill:#ff0000;stroke:#ff0000;" x="172.834525" xlink:href="#maaad25c343" y="196.409024"/>
     <use style="fill:#ff0000;stroke:#ff0000;" x="173.28048" xlink:href="#maaad25c343" y="201.947819"/>
     <use style="fill:#ff0000;stroke:#ff0000;" x="173.726434" xlink:href="#maaad25c343" y="204.040253"/>
     <use style="fill:#ff0000;stroke:#ff0000;" x="175.064296" xlink:href="#maaad25c343" y="202.317072"/>
     <use style="fill:#ff0000;stroke:#ff0000;" x="175.51025" xlink:href="#maaad25c343" y="203.39406"/>
     <use style="fill:#ff0000;stroke:#ff0000;" x="175.956204" xlink:href="#maaad25c343" y="199.086108"/>
     <use style="fill:#ff0000;stroke:#ff0000;" x="176.402158" xlink:href="#maaad25c343" y="200.901602"/>
     <use style="fill:#ff0000;stroke:#ff0000;" x="176.848112" xlink:href="#maaad25c343" y="211.702252"/>
     <use style="fill:#ff0000;stroke:#ff0000;" x="178.185974" xlink:href="#maaad25c343" y="222.072108"/>
     <use style="fill:#ff0000;stroke:#ff0000;" x="178.631928" xlink:href="#maaad25c343" y="233.088156"/>
     <use style="fill:#ff0000;stroke:#ff0000;" x="179.077882" xlink:href="#maaad25c343" y="223.118325"/>
     <use style="fill:#ff0000;stroke:#ff0000;" x="179.523836" xlink:href="#maaad25c343" y="207.332759"/>
     <use style="fill:#ff0000;stroke:#ff0000;" x="179.96979" xlink:href="#maaad25c343" y="206.009602"/>
     <use style="fill:#ff0000;stroke:#ff0000;" x="181.307652" xlink:href="#maaad25c343" y="197.178301"/>
     <use style="fill:#ff0000;stroke:#ff0000;" x="181.753606" xlink:href="#maaad25c343" y="205.701891"/>
     <use style="fill:#ff0000;stroke:#ff0000;" x="182.19956" xlink:href="#maaad25c343" y="201.917048"/>
     <use style="fill:#ff0000;stroke:#ff0000;" x="182.645514" xlink:href="#maaad25c343" y="201.332397"/>
     <use style="fill:#ff0000;stroke:#ff0000;" x="183.091469" xlink:href="#maaad25c343" y="191.885674"/>
     <use style="fill:#ff0000;stroke:#ff0000;" x="184.429331" xlink:href="#maaad25c343" y="192.62418"/>
     <use style="fill:#ff0000;stroke:#ff0000;" x="184.875285" xlink:href="#maaad25c343" y="194.162735"/>
     <use style="fill:#ff0000;stroke:#ff0000;" x="185.321239" xlink:href="#maaad25c343" y="201.670879"/>
     <use style="fill:#ff0000;stroke:#ff0000;" x="185.767193" xlink:href="#maaad25c343" y="201.240084"/>
     <use style="fill:#ff0000;stroke:#ff0000;" x="186.213147" xlink:href="#maaad25c343" y="213.05618"/>
     <use style="fill:#ff0000;stroke:#ff0000;" x="187.551009" xlink:href="#maaad25c343" y="217.364132"/>
     <use style="fill:#ff0000;stroke:#ff0000;" x="187.996963" xlink:href="#maaad25c343" y="213.856228"/>
     <use style="fill:#ff0000;stroke:#ff0000;" x="188.442917" xlink:href="#maaad25c343" y="211.486855"/>
     <use style="fill:#ff0000;stroke:#ff0000;" x="188.888871" xlink:href="#maaad25c343" y="217.210277"/>
     <use style="fill:#ff0000;stroke:#ff0000;" x="189.334825" xlink:href="#maaad25c343" y="229.24177"/>
     <use style="fill:#ff0000;stroke:#ff0000;" x="190.672687" xlink:href="#maaad25c343" y="218.71806"/>
     <use style="fill:#ff0000;stroke:#ff0000;" x="191.118641" xlink:href="#maaad25c343" y="207.702012"/>
     <use style="fill:#ff0000;stroke:#ff0000;" x="191.564595" xlink:href="#maaad25c343" y="196.532108"/>
     <use style="fill:#ff0000;stroke:#ff0000;" x="192.010549" xlink:href="#maaad25c343" y="200.040012"/>
     <use style="fill:#ff0000;stroke:#ff0000;" x="192.456503" xlink:href="#maaad25c343" y="196.009"/>
     <use style="fill:#ff0000;stroke:#ff0000;" x="193.794366" xlink:href="#maaad25c343" y="194.685843"/>
     <use style="fill:#ff0000;stroke:#ff0000;" x="194.24032" xlink:href="#maaad25c343" y="196.59365"/>
     <use style="fill:#ff0000;stroke:#ff0000;" x="194.686274" xlink:href="#maaad25c343" y="197.978349"/>
     <use style="fill:#ff0000;stroke:#ff0000;" x="195.132228" xlink:href="#maaad25c343" y="190.254807"/>
     <use style="fill:#ff0000;stroke:#ff0000;" x="195.578182" xlink:href="#maaad25c343" y="189.547072"/>
     <use style="fill:#ff0000;stroke:#ff0000;" x="196.916044" xlink:href="#maaad25c343" y="198.716855"/>
     <use style="fill:#ff0000;stroke:#ff0000;" x="197.361998" xlink:href="#maaad25c343" y="193.793482"/>
     <use style="fill:#ff0000;stroke:#ff0000;" x="197.807952" xlink:href="#maaad25c343" y="202.594012"/>
     <use style="fill:#ff0000;stroke:#ff0000;" x="198.253906" xlink:href="#maaad25c343" y="204.471048"/>
     <use style="fill:#ff0000;stroke:#ff0000;" x="198.69986" xlink:href="#maaad25c343" y="213.733144"/>
     <use style="fill:#ff0000;stroke:#ff0000;" x="200.037722" xlink:href="#maaad25c343" y="216.625626"/>
     <use style="fill:#ff0000;stroke:#ff0000;" x="200.483676" xlink:href="#maaad25c343" y="215.056301"/>
     <use style="fill:#ff0000;stroke:#ff0000;" x="200.92963" xlink:href="#maaad25c343" y="217.210277"/>
     <use style="fill:#ff0000;stroke:#ff0000;" x="201.375584" xlink:href="#maaad25c343" y="222.779843"/>
     <use style="fill:#ff0000;stroke:#ff0000;" x="201.821538" xlink:href="#maaad25c343" y="213.702373"/>
     <use style="fill:#ff0000;stroke:#ff0000;" x="203.159401" xlink:href="#maaad25c343" y="213.025409"/>
     <use style="fill:#ff0000;stroke:#ff0000;" x="203.605355" xlink:href="#maaad25c343" y="209.332879"/>
     <use style="fill:#ff0000;stroke:#ff0000;" x="204.051309" xlink:href="#maaad25c343" y="201.886277"/>
     <use style="fill:#ff0000;stroke:#ff0000;" x="204.497263" xlink:href="#maaad25c343" y="196.378253"/>
     <use style="fill:#ff0000;stroke:#ff0000;" x="204.943217" xlink:href="#maaad25c343" y="184.254446"/>
     <use style="fill:#ff0000;stroke:#ff0000;" x="206.281079" xlink:href="#maaad25c343" y="170.561313"/>
     <use style="fill:#ff0000;stroke:#ff0000;" x="206.727033" xlink:href="#maaad25c343" y="169.822807"/>
     <use style="fill:#ff0000;stroke:#ff0000;" x="207.172987" xlink:href="#maaad25c343" y="164.991747"/>
     <use style="fill:#ff0000;stroke:#ff0000;" x="207.618941" xlink:href="#maaad25c343" y="160.437626"/>
     <use style="fill:#ff0000;stroke:#ff0000;" x="208.064895" xlink:href="#maaad25c343" y="167.391891"/>
     <use style="fill:#ff0000;stroke:#ff0000;" x="209.402757" xlink:href="#maaad25c343" y="172.253723"/>
     <use style="fill:#ff0000;stroke:#ff0000;" x="209.848711" xlink:href="#maaad25c343" y="169.545867"/>
     <use style="fill:#ff0000;stroke:#ff0000;" x="210.294665" xlink:href="#maaad25c343" y="163.453193"/>
     <use style="fill:#ff0000;stroke:#ff0000;" x="210.740619" xlink:href="#maaad25c343" y="161.94541"/>
     <use style="fill:#ff0000;stroke:#ff0000;" x="211.186573" xlink:href="#maaad25c343" y="157.329747"/>
     <use style="fill:#ff0000;stroke:#ff0000;" x="212.524436" xlink:href="#maaad25c343" y="141.021072"/>
     <use style="fill:#ff0000;stroke:#ff0000;" x="212.97039" xlink:href="#maaad25c343" y="142.09806"/>
     <use style="fill:#ff0000;stroke:#ff0000;" x="213.862298" xlink:href="#maaad25c343" y="146.282928"/>
     <use style="fill:#ff0000;stroke:#ff0000;" x="214.308252" xlink:href="#maaad25c343" y="147.698398"/>
     <use style="fill:#ff0000;stroke:#ff0000;" x="215.646114" xlink:href="#maaad25c343" y="141.759578"/>
     <use style="fill:#ff0000;stroke:#ff0000;" x="216.092068" xlink:href="#maaad25c343" y="135.789988"/>
     <use style="fill:#ff0000;stroke:#ff0000;" x="216.538022" xlink:href="#maaad25c343" y="134.959169"/>
     <use style="fill:#ff0000;stroke:#ff0000;" x="216.983976" xlink:href="#maaad25c343" y="136.436181"/>
     <use style="fill:#ff0000;stroke:#ff0000;" x="217.42993" xlink:href="#maaad25c343" y="137.913193"/>
     <use style="fill:#ff0000;stroke:#ff0000;" x="218.767792" xlink:href="#maaad25c343" y="132.559024"/>
     <use style="fill:#ff0000;stroke:#ff0000;" x="219.213746" xlink:href="#maaad25c343" y="128.220302"/>
     <use style="fill:#ff0000;stroke:#ff0000;" x="219.6597" xlink:href="#maaad25c343" y="122.250711"/>
     <use style="fill:#ff0000;stroke:#ff0000;" x="220.105654" xlink:href="#maaad25c343" y="119.696711"/>
     <use style="fill:#ff0000;stroke:#ff0000;" x="220.551608" xlink:href="#maaad25c343" y="118.619723"/>
     <use style="fill:#ff0000;stroke:#ff0000;" x="221.889471" xlink:href="#maaad25c343" y="119.512085"/>
     <use style="fill:#ff0000;stroke:#ff0000;" x="222.335425" xlink:href="#maaad25c343" y="121.235265"/>
     <use style="fill:#ff0000;stroke:#ff0000;" x="222.781379" xlink:href="#maaad25c343" y="119.481314"/>
     <use style="fill:#ff0000;stroke:#ff0000;" x="223.227333" xlink:href="#maaad25c343" y="116.558061"/>
     <use style="fill:#ff0000;stroke:#ff0000;" x="223.673287" xlink:href="#maaad25c343" y="140.95953"/>
     <use style="fill:#ff0000;stroke:#ff0000;" x="225.011149" xlink:href="#maaad25c343" y="133.389844"/>
     <use style="fill:#ff0000;stroke:#ff0000;" x="225.457103" xlink:href="#maaad25c343" y="132.651338"/>
     <use style="fill:#ff0000;stroke:#ff0000;" x="225.903057" xlink:href="#maaad25c343" y="137.943964"/>
     <use style="fill:#ff0000;stroke:#ff0000;" x="226.349011" xlink:href="#maaad25c343" y="141.144157"/>
     <use style="fill:#ff0000;stroke:#ff0000;" x="226.794965" xlink:href="#maaad25c343" y="137.54394"/>
     <use style="fill:#ff0000;stroke:#ff0000;" x="228.132827" xlink:href="#maaad25c343" y="138.251675"/>
     <use style="fill:#ff0000;stroke:#ff0000;" x="228.578781" xlink:href="#maaad25c343" y="143.544301"/>
     <use style="fill:#ff0000;stroke:#ff0000;" x="229.024735" xlink:href="#maaad25c343" y="139.821"/>
     <use style="fill:#ff0000;stroke:#ff0000;" x="229.470689" xlink:href="#maaad25c343" y="139.759458"/>
     <use style="fill:#ff0000;stroke:#ff0000;" x="229.916643" xlink:href="#maaad25c343" y="142.467313"/>
     <use style="fill:#ff0000;stroke:#ff0000;" x="231.254505" xlink:href="#maaad25c343" y="153.483362"/>
     <use style="fill:#ff0000;stroke:#ff0000;" x="231.70046" xlink:href="#maaad25c343" y="166.191819"/>
     <use style="fill:#ff0000;stroke:#ff0000;" x="232.146414" xlink:href="#maaad25c343" y="163.576277"/>
     <use style="fill:#ff0000;stroke:#ff0000;" x="232.592368" xlink:href="#maaad25c343" y="169.022759"/>
     <use style="fill:#ff0000;stroke:#ff0000;" x="234.376184" xlink:href="#maaad25c343" y="170.007434"/>
     <use style="fill:#ff0000;stroke:#ff0000;" x="234.822138" xlink:href="#maaad25c343" y="170.130518"/>
     <use style="fill:#ff0000;stroke:#ff0000;" x="235.268092" xlink:href="#maaad25c343" y="165.761024"/>
     <use style="fill:#ff0000;stroke:#ff0000;" x="235.714046" xlink:href="#maaad25c343" y="159.299096"/>
     <use style="fill:#ff0000;stroke:#ff0000;" x="237.497862" xlink:href="#maaad25c343" y="150.990904"/>
     <use style="fill:#ff0000;stroke:#ff0000;" x="237.497862" xlink:href="#maaad25c343" y="150.990904"/>
     <use style="fill:#ff0000;stroke:#ff0000;" x="237.943816" xlink:href="#maaad25c343" y="126.620205"/>
     <use style="fill:#ff0000;stroke:#ff0000;" x="238.835724" xlink:href="#maaad25c343" y="126.250952"/>
     <use style="fill:#ff0000;stroke:#ff0000;" x="239.281678" xlink:href="#maaad25c343" y="130.005024"/>
     <use style="fill:#ff0000;stroke:#ff0000;" x="240.61954" xlink:href="#maaad25c343" y="126.250952"/>
     <use style="fill:#ff0000;stroke:#ff0000;" x="241.065495" xlink:href="#maaad25c343" y="123.63541"/>
     <use style="fill:#ff0000;stroke:#ff0000;" x="241.511449" xlink:href="#maaad25c343" y="126.774061"/>
     <use style="fill:#ff0000;stroke:#ff0000;" x="241.957403" xlink:href="#maaad25c343" y="129.174205"/>
     <use style="fill:#ff0000;stroke:#ff0000;" x="242.403357" xlink:href="#maaad25c343" y="116.219579"/>
     <use style="fill:#ff0000;stroke:#ff0000;" x="243.741219" xlink:href="#maaad25c343" y="94.002856"/>
     <use style="fill:#ff0000;stroke:#ff0000;" x="244.187173" xlink:href="#maaad25c343" y="100.64941"/>
     <use style="fill:#ff0000;stroke:#ff0000;" x="244.633127" xlink:href="#maaad25c343" y="101.880254"/>
     <use style="fill:#ff0000;stroke:#ff0000;" x="245.079081" xlink:href="#maaad25c343" y="88.771772"/>
     <use style="fill:#ff0000;stroke:#ff0000;" x="245.525035" xlink:href="#maaad25c343" y="97.141507"/>
     <use style="fill:#ff0000;stroke:#ff0000;" x="246.862897" xlink:href="#maaad25c343" y="87.448615"/>
     <use style="fill:#ff0000;stroke:#ff0000;" x="247.308851" xlink:href="#maaad25c343" y="83.479145"/>
     <use style="fill:#ff0000;stroke:#ff0000;" x="247.754805" xlink:href="#maaad25c343" y="93.664374"/>
     <use style="fill:#ff0000;stroke:#ff0000;" x="248.200759" xlink:href="#maaad25c343" y="102.034109"/>
     <use style="fill:#ff0000;stroke:#ff0000;" x="248.646713" xlink:href="#maaad25c343" y="106.619001"/>
     <use style="fill:#ff0000;stroke:#ff0000;" x="249.984575" xlink:href="#maaad25c343" y="109.234543"/>
     <use style="fill:#ff0000;stroke:#ff0000;" x="250.430529" xlink:href="#maaad25c343" y="118.619723"/>
     <use style="fill:#ff0000;stroke:#ff0000;" x="250.876484" xlink:href="#maaad25c343" y="118.865892"/>
     <use style="fill:#ff0000;stroke:#ff0000;" x="251.322438" xlink:href="#maaad25c343" y="144.498205"/>
     <use style="fill:#ff0000;stroke:#ff0000;" x="251.768392" xlink:href="#maaad25c343" y="146.713723"/>
     <use style="fill:#ff0000;stroke:#ff0000;" x="253.106254" xlink:href="#maaad25c343" y="143.482759"/>
     <use style="fill:#ff0000;stroke:#ff0000;" x="253.552208" xlink:href="#maaad25c343" y="135.913073"/>
     <use style="fill:#ff0000;stroke:#ff0000;" x="253.998162" xlink:href="#maaad25c343" y="147.852253"/>
     <use style="fill:#ff0000;stroke:#ff0000;" x="254.444116" xlink:href="#maaad25c343" y="152.898711"/>
     <use style="fill:#ff0000;stroke:#ff0000;" x="254.89007" xlink:href="#maaad25c343" y="157.360518"/>
     <use style="fill:#ff0000;stroke:#ff0000;" x="256.227932" xlink:href="#maaad25c343" y="152.86794"/>
     <use style="fill:#ff0000;stroke:#ff0000;" x="256.673886" xlink:href="#maaad25c343" y="147.20606"/>
     <use style="fill:#ff0000;stroke:#ff0000;" x="257.11984" xlink:href="#maaad25c343" y="146.375241"/>
     <use style="fill:#ff0000;stroke:#ff0000;" x="257.565794" xlink:href="#maaad25c343" y="146.836807"/>
     <use style="fill:#ff0000;stroke:#ff0000;" x="258.011748" xlink:href="#maaad25c343" y="143.298133"/>
     <use style="fill:#ff0000;stroke:#ff0000;" x="259.34961" xlink:href="#maaad25c343" y="147.606084"/>
     <use style="fill:#ff0000;stroke:#ff0000;" x="259.795564" xlink:href="#maaad25c343" y="138.990181"/>
     <use style="fill:#ff0000;stroke:#ff0000;" x="260.241518" xlink:href="#maaad25c343" y="134.928398"/>
     <use style="fill:#ff0000;stroke:#ff0000;" x="260.687473" xlink:href="#maaad25c343" y="137.943964"/>
     <use style="fill:#ff0000;stroke:#ff0000;" x="261.133427" xlink:href="#maaad25c343" y="142.867338"/>
     <use style="fill:#ff0000;stroke:#ff0000;" x="262.471289" xlink:href="#maaad25c343" y="130.866615"/>
     <use style="fill:#ff0000;stroke:#ff0000;" x="262.917243" xlink:href="#maaad25c343" y="131.205097"/>
     <use style="fill:#ff0000;stroke:#ff0000;" x="263.363197" xlink:href="#maaad25c343" y="133.143675"/>
     <use style="fill:#ff0000;stroke:#ff0000;" x="263.809151" xlink:href="#maaad25c343" y="134.866856"/>
     <use style="fill:#ff0000;stroke:#ff0000;" x="264.255105" xlink:href="#maaad25c343" y="142.867338"/>
     <use style="fill:#ff0000;stroke:#ff0000;" x="265.592967" xlink:href="#maaad25c343" y="143.79047"/>
     <use style="fill:#ff0000;stroke:#ff0000;" x="266.038921" xlink:href="#maaad25c343" y="149.390807"/>
     <use style="fill:#ff0000;stroke:#ff0000;" x="266.484875" xlink:href="#maaad25c343" y="147.483"/>
     <use style="fill:#ff0000;stroke:#ff0000;" x="266.930829" xlink:href="#maaad25c343" y="149.790831"/>
     <use style="fill:#ff0000;stroke:#ff0000;" x="267.376783" xlink:href="#maaad25c343" y="162.622373"/>
     <use style="fill:#ff0000;stroke:#ff0000;" x="268.714645" xlink:href="#maaad25c343" y="175.946253"/>
     <use style="fill:#ff0000;stroke:#ff0000;" x="269.160599" xlink:href="#maaad25c343" y="170.438229"/>
     <use style="fill:#ff0000;stroke:#ff0000;" x="269.606553" xlink:href="#maaad25c343" y="167.36112"/>
     <use style="fill:#ff0000;stroke:#ff0000;" x="270.052507" xlink:href="#maaad25c343" y="189.270132"/>
     <use style="fill:#ff0000;stroke:#ff0000;" x="270.498462" xlink:href="#maaad25c343" y="194.03965"/>
     <use style="fill:#ff0000;stroke:#ff0000;" x="271.836324" xlink:href="#maaad25c343" y="195.393578"/>
     <use style="fill:#ff0000;stroke:#ff0000;" x="272.282278" xlink:href="#maaad25c343" y="190.254807"/>
     <use style="fill:#ff0000;stroke:#ff0000;" x="272.728232" xlink:href="#maaad25c343" y="190.100951"/>
     <use style="fill:#ff0000;stroke:#ff0000;" x="273.174186" xlink:href="#maaad25c343" y="183.023602"/>
     <use style="fill:#ff0000;stroke:#ff0000;" x="273.62014" xlink:href="#maaad25c343" y="185.054494"/>
     <use style="fill:#ff0000;stroke:#ff0000;" x="275.403956" xlink:href="#maaad25c343" y="189.270132"/>
     <use style="fill:#ff0000;stroke:#ff0000;" x="275.84991" xlink:href="#maaad25c343" y="205.94806"/>
     <use style="fill:#ff0000;stroke:#ff0000;" x="276.295864" xlink:href="#maaad25c343" y="203.024807"/>
     <use style="fill:#ff0000;stroke:#ff0000;" x="276.741818" xlink:href="#maaad25c343" y="215.240927"/>
     <use style="fill:#ff0000;stroke:#ff0000;" x="278.07968" xlink:href="#maaad25c343" y="213.363891"/>
     <use style="fill:#ff0000;stroke:#ff0000;" x="278.525634" xlink:href="#maaad25c343" y="210.809891"/>
     <use style="fill:#ff0000;stroke:#ff0000;" x="278.525634" xlink:href="#maaad25c343" y="210.809891"/>
     <use style="fill:#ff0000;stroke:#ff0000;" x="278.971588" xlink:href="#maaad25c343" y="205.486493"/>
     <use style="fill:#ff0000;stroke:#ff0000;" x="279.417542" xlink:href="#maaad25c343" y="208.440518"/>
     <use style="fill:#ff0000;stroke:#ff0000;" x="279.863497" xlink:href="#maaad25c343" y="199.609216"/>
     <use style="fill:#ff0000;stroke:#ff0000;" x="281.201359" xlink:href="#maaad25c343" y="203.11712"/>
     <use style="fill:#ff0000;stroke:#ff0000;" x="281.647313" xlink:href="#maaad25c343" y="206.101915"/>
     <use style="fill:#ff0000;stroke:#ff0000;" x="282.093267" xlink:href="#maaad25c343" y="197.455241"/>
     <use style="fill:#ff0000;stroke:#ff0000;" x="282.539221" xlink:href="#maaad25c343" y="185.054494"/>
     <use style="fill:#ff0000;stroke:#ff0000;" x="282.985175" xlink:href="#maaad25c343" y="184.992952"/>
     <use style="fill:#ff0000;stroke:#ff0000;" x="284.323037" xlink:href="#maaad25c343" y="190.100951"/>
     <use style="fill:#ff0000;stroke:#ff0000;" x="284.768991" xlink:href="#maaad25c343" y="192.716494"/>
     <use style="fill:#ff0000;stroke:#ff0000;" x="285.214945" xlink:href="#maaad25c343" y="195.270494"/>
     <use style="fill:#ff0000;stroke:#ff0000;" x="285.660899" xlink:href="#maaad25c343" y="190.993313"/>
     <use style="fill:#ff0000;stroke:#ff0000;" x="286.106853" xlink:href="#maaad25c343" y="178.131"/>
     <use style="fill:#ff0000;stroke:#ff0000;" x="287.444715" xlink:href="#maaad25c343" y="160.806879"/>
     <use style="fill:#ff0000;stroke:#ff0000;" x="287.890669" xlink:href="#maaad25c343" y="161.637699"/>
     <use style="fill:#ff0000;stroke:#ff0000;" x="288.336623" xlink:href="#maaad25c343" y="166.007193"/>
     <use style="fill:#ff0000;stroke:#ff0000;" x="288.782577" xlink:href="#maaad25c343" y="169.022759"/>
     <use style="fill:#ff0000;stroke:#ff0000;" x="289.228531" xlink:href="#maaad25c343" y="167.699602"/>
     <use style="fill:#ff0000;stroke:#ff0000;" x="290.566394" xlink:href="#maaad25c343" y="184.408301"/>
     <use style="fill:#ff0000;stroke:#ff0000;" x="291.458302" xlink:href="#maaad25c343" y="181.177337"/>
     <use style="fill:#ff0000;stroke:#ff0000;" x="291.904256" xlink:href="#maaad25c343" y="175.792397"/>
     <use style="fill:#ff0000;stroke:#ff0000;" x="292.35021" xlink:href="#maaad25c343" y="167.884229"/>
     <use style="fill:#ff0000;stroke:#ff0000;" x="293.688072" xlink:href="#maaad25c343" y="167.945771"/>
     <use style="fill:#ff0000;stroke:#ff0000;" x="294.134026" xlink:href="#maaad25c343" y="164.160928"/>
     <use style="fill:#ff0000;stroke:#ff0000;" x="294.57998" xlink:href="#maaad25c343" y="164.099385"/>
     <use style="fill:#ff0000;stroke:#ff0000;" x="295.025934" xlink:href="#maaad25c343" y="165.453313"/>
     <use style="fill:#ff0000;stroke:#ff0000;" x="295.471888" xlink:href="#maaad25c343" y="166.561072"/>
     <use style="fill:#ff0000;stroke:#ff0000;" x="296.80975" xlink:href="#maaad25c343" y="171.176735"/>
     <use style="fill:#ff0000;stroke:#ff0000;" x="297.255704" xlink:href="#maaad25c343" y="174.776952"/>
     <use style="fill:#ff0000;stroke:#ff0000;" x="297.701658" xlink:href="#maaad25c343" y="159.483723"/>
     <use style="fill:#ff0000;stroke:#ff0000;" x="298.147612" xlink:href="#maaad25c343" y="154.683434"/>
     <use style="fill:#ff0000;stroke:#ff0000;" x="298.593566" xlink:href="#maaad25c343" y="148.62153"/>
     <use style="fill:#ff0000;stroke:#ff0000;" x="299.931429" xlink:href="#maaad25c343" y="143.852012"/>
     <use style="fill:#ff0000;stroke:#ff0000;" x="300.377383" xlink:href="#maaad25c343" y="135.359193"/>
     <use style="fill:#ff0000;stroke:#ff0000;" x="300.823337" xlink:href="#maaad25c343" y="138.590157"/>
     <use style="fill:#ff0000;stroke:#ff0000;" x="301.715245" xlink:href="#maaad25c343" y="147.544542"/>
     <use style="fill:#ff0000;stroke:#ff0000;" x="303.053107" xlink:href="#maaad25c343" y="145.175169"/>
     <use style="fill:#ff0000;stroke:#ff0000;" x="303.499061" xlink:href="#maaad25c343" y="148.283048"/>
     <use style="fill:#ff0000;stroke:#ff0000;" x="303.945015" xlink:href="#maaad25c343" y="148.867699"/>
     <use style="fill:#ff0000;stroke:#ff0000;" x="304.390969" xlink:href="#maaad25c343" y="153.360277"/>
     <use style="fill:#ff0000;stroke:#ff0000;" x="304.836923" xlink:href="#maaad25c343" y="147.821482"/>
     <use style="fill:#ff0000;stroke:#ff0000;" x="306.174785" xlink:href="#maaad25c343" y="171.88447"/>
     <use style="fill:#ff0000;stroke:#ff0000;" x="306.620739" xlink:href="#maaad25c343" y="181.238879"/>
     <use style="fill:#ff0000;stroke:#ff0000;" x="307.066693" xlink:href="#maaad25c343" y="185.793"/>
     <use style="fill:#ff0000;stroke:#ff0000;" x="307.512647" xlink:href="#maaad25c343" y="186.531506"/>
     <use style="fill:#ff0000;stroke:#ff0000;" x="307.958601" xlink:href="#maaad25c343" y="173.638422"/>
     <use style="fill:#ff0000;stroke:#ff0000;" x="309.296464" xlink:href="#maaad25c343" y="161.39153"/>
     <use style="fill:#ff0000;stroke:#ff0000;" x="309.742418" xlink:href="#maaad25c343" y="144.775145"/>
     <use style="fill:#ff0000;stroke:#ff0000;" x="310.188372" xlink:href="#maaad25c343" y="148.836928"/>
     <use style="fill:#ff0000;stroke:#ff0000;" x="310.634326" xlink:href="#maaad25c343" y="145.20594"/>
     <use style="fill:#ff0000;stroke:#ff0000;" x="311.08028" xlink:href="#maaad25c343" y="146.959892"/>
     <use style="fill:#ff0000;stroke:#ff0000;" x="312.418142" xlink:href="#maaad25c343" y="168.130397"/>
     <use style="fill:#ff0000;stroke:#ff0000;" x="312.864096" xlink:href="#maaad25c343" y="167.607289"/>
     <use style="fill:#ff0000;stroke:#ff0000;" x="313.31005" xlink:href="#maaad25c343" y="161.329988"/>
     <use style="fill:#ff0000;stroke:#ff0000;" x="313.756004" xlink:href="#maaad25c343" y="172.16141"/>
     <use style="fill:#ff0000;stroke:#ff0000;" x="314.201958" xlink:href="#maaad25c343" y="129.051121"/>
     <use style="fill:#ff0000;stroke:#ff0000;" x="315.53982" xlink:href="#maaad25c343" y="120.773699"/>
     <use style="fill:#ff0000;stroke:#ff0000;" x="315.985774" xlink:href="#maaad25c343" y="127.943362"/>
     <use style="fill:#ff0000;stroke:#ff0000;" x="316.431728" xlink:href="#maaad25c343" y="131.789747"/>
     <use style="fill:#ff0000;stroke:#ff0000;" x="316.877682" xlink:href="#maaad25c343" y="134.928398"/>
     <use style="fill:#ff0000;stroke:#ff0000;" x="317.323636" xlink:href="#maaad25c343" y="142.775024"/>
     <use style="fill:#ff0000;stroke:#ff0000;" x="318.661499" xlink:href="#maaad25c343" y="132.374398"/>
     <use style="fill:#ff0000;stroke:#ff0000;" x="319.107453" xlink:href="#maaad25c343" y="130.005024"/>
     <use style="fill:#ff0000;stroke:#ff0000;" x="319.553407" xlink:href="#maaad25c343" y="121.943"/>
     <use style="fill:#ff0000;stroke:#ff0000;" x="319.553407" xlink:href="#maaad25c343" y="121.943"/>
     <use style="fill:#ff0000;stroke:#ff0000;" x="319.999361" xlink:href="#maaad25c343" y="127.758735"/>
     <use style="fill:#ff0000;stroke:#ff0000;" x="320.445315" xlink:href="#maaad25c343" y="128.835723"/>
     <use style="fill:#ff0000;stroke:#ff0000;" x="321.783177" xlink:href="#maaad25c343" y="127.020229"/>
     <use style="fill:#ff0000;stroke:#ff0000;" x="322.229131" xlink:href="#maaad25c343" y="134.805314"/>
     <use style="fill:#ff0000;stroke:#ff0000;" x="322.675085" xlink:href="#maaad25c343" y="134.743771"/>
     <use style="fill:#ff0000;stroke:#ff0000;" x="323.121039" xlink:href="#maaad25c343" y="138.68247"/>
     <use style="fill:#ff0000;stroke:#ff0000;" x="323.566993" xlink:href="#maaad25c343" y="141.23647"/>
     <use style="fill:#ff0000;stroke:#ff0000;" x="324.904855" xlink:href="#maaad25c343" y="133.389844"/>
     <use style="fill:#ff0000;stroke:#ff0000;" x="325.350809" xlink:href="#maaad25c343" y="141.728807"/>
     <use style="fill:#ff0000;stroke:#ff0000;" x="325.796763" xlink:href="#maaad25c343" y="135.328422"/>
     <use style="fill:#ff0000;stroke:#ff0000;" x="326.242717" xlink:href="#maaad25c343" y="138.559386"/>
     <use style="fill:#ff0000;stroke:#ff0000;" x="326.688671" xlink:href="#maaad25c343" y="144.128952"/>
     <use style="fill:#ff0000;stroke:#ff0000;" x="328.026533" xlink:href="#maaad25c343" y="138.190133"/>
     <use style="fill:#ff0000;stroke:#ff0000;" x="328.472488" xlink:href="#maaad25c343" y="138.651699"/>
     <use style="fill:#ff0000;stroke:#ff0000;" x="328.918442" xlink:href="#maaad25c343" y="136.897747"/>
     <use style="fill:#ff0000;stroke:#ff0000;" x="329.364396" xlink:href="#maaad25c343" y="147.667627"/>
     <use style="fill:#ff0000;stroke:#ff0000;" x="329.81035" xlink:href="#maaad25c343" y="148.436904"/>
     <use style="fill:#ff0000;stroke:#ff0000;" x="331.148212" xlink:href="#maaad25c343" y="158.406735"/>
     <use style="fill:#ff0000;stroke:#ff0000;" x="331.594166" xlink:href="#maaad25c343" y="165.176373"/>
     <use style="fill:#ff0000;stroke:#ff0000;" x="332.04012" xlink:href="#maaad25c343" y="174.530783"/>
     <use style="fill:#ff0000;stroke:#ff0000;" x="332.486074" xlink:href="#maaad25c343" y="172.315265"/>
     <use style="fill:#ff0000;stroke:#ff0000;" x="332.932028" xlink:href="#maaad25c343" y="173.730735"/>
     <use style="fill:#ff0000;stroke:#ff0000;" x="334.26989" xlink:href="#maaad25c343" y="168.684277"/>
     <use style="fill:#ff0000;stroke:#ff0000;" x="334.715844" xlink:href="#maaad25c343" y="175.577"/>
     <use style="fill:#ff0000;stroke:#ff0000;" x="335.161798" xlink:href="#maaad25c343" y="182.715891"/>
     <use style="fill:#ff0000;stroke:#ff0000;" x="335.607752" xlink:href="#maaad25c343" y="181.26965"/>
     <use style="fill:#ff0000;stroke:#ff0000;" x="336.053706" xlink:href="#maaad25c343" y="183.669795"/>
     <use style="fill:#ff0000;stroke:#ff0000;" x="337.837522" xlink:href="#maaad25c343" y="192.593409"/>
     <use style="fill:#ff0000;stroke:#ff0000;" x="338.283477" xlink:href="#maaad25c343" y="188.100831"/>
     <use style="fill:#ff0000;stroke:#ff0000;" x="338.729431" xlink:href="#maaad25c343" y="195.762831"/>
     <use style="fill:#ff0000;stroke:#ff0000;" x="339.175385" xlink:href="#maaad25c343" y="193.331915"/>
     <use style="fill:#ff0000;stroke:#ff0000;" x="340.513247" xlink:href="#maaad25c343" y="187.639265"/>
     <use style="fill:#ff0000;stroke:#ff0000;" x="340.959201" xlink:href="#maaad25c343" y="188.531626"/>
     <use style="fill:#ff0000;stroke:#ff0000;" x="341.405155" xlink:href="#maaad25c343" y="185.054494"/>
     <use style="fill:#ff0000;stroke:#ff0000;" x="341.851109" xlink:href="#maaad25c343" y="184.562156"/>
     <use style="fill:#ff0000;stroke:#ff0000;" x="342.297063" xlink:href="#maaad25c343" y="180.315747"/>
     <use style="fill:#ff0000;stroke:#ff0000;" x="343.634925" xlink:href="#maaad25c343" y="166.130277"/>
     <use style="fill:#ff0000;stroke:#ff0000;" x="344.080879" xlink:href="#maaad25c343" y="164.007072"/>
     <use style="fill:#ff0000;stroke:#ff0000;" x="344.526833" xlink:href="#maaad25c343" y="157.114349"/>
     <use style="fill:#ff0000;stroke:#ff0000;" x="344.972787" xlink:href="#maaad25c343" y="156.068133"/>
     <use style="fill:#ff0000;stroke:#ff0000;" x="345.418741" xlink:href="#maaad25c343" y="154.591121"/>
     <use style="fill:#ff0000;stroke:#ff0000;" x="346.756603" xlink:href="#maaad25c343" y="161.576157"/>
     <use style="fill:#ff0000;stroke:#ff0000;" x="347.202557" xlink:href="#maaad25c343" y="163.66859"/>
     <use style="fill:#ff0000;stroke:#ff0000;" x="347.648511" xlink:href="#maaad25c343" y="174.561554"/>
     <use style="fill:#ff0000;stroke:#ff0000;" x="348.094466" xlink:href="#maaad25c343" y="182.562036"/>
     <use style="fill:#ff0000;stroke:#ff0000;" x="348.54042" xlink:href="#maaad25c343" y="178.561795"/>
     <use style="fill:#ff0000;stroke:#ff0000;" x="349.878282" xlink:href="#maaad25c343" y="169.853578"/>
     <use style="fill:#ff0000;stroke:#ff0000;" x="350.324236" xlink:href="#maaad25c343" y="167.822687"/>
     <use style="fill:#ff0000;stroke:#ff0000;" x="350.77019" xlink:href="#maaad25c343" y="168.376566"/>
     <use style="fill:#ff0000;stroke:#ff0000;" x="351.216144" xlink:href="#maaad25c343" y="172.346036"/>
     <use style="fill:#ff0000;stroke:#ff0000;" x="351.662098" xlink:href="#maaad25c343" y="175.115434"/>
     <use style="fill:#ff0000;stroke:#ff0000;" x="352.99996" xlink:href="#maaad25c343" y="172.376807"/>
     <use style="fill:#ff0000;stroke:#ff0000;" x="353.445914" xlink:href="#maaad25c343" y="176.930928"/>
     <use style="fill:#ff0000;stroke:#ff0000;" x="353.891868" xlink:href="#maaad25c343" y="171.915241"/>
     <use style="fill:#ff0000;stroke:#ff0000;" x="354.337822" xlink:href="#maaad25c343" y="186.469964"/>
     <use style="fill:#ff0000;stroke:#ff0000;" x="354.783776" xlink:href="#maaad25c343" y="180.315747"/>
     <use style="fill:#ff0000;stroke:#ff0000;" x="356.121638" xlink:href="#maaad25c343" y="180.438831"/>
     <use style="fill:#ff0000;stroke:#ff0000;" x="356.567592" xlink:href="#maaad25c343" y="183.423626"/>
     <use style="fill:#ff0000;stroke:#ff0000;" x="357.013546" xlink:href="#maaad25c343" y="182.285096"/>
     <use style="fill:#ff0000;stroke:#ff0000;" x="357.4595" xlink:href="#maaad25c343" y="179.515699"/>
     <use style="fill:#ff0000;stroke:#ff0000;" x="357.905455" xlink:href="#maaad25c343" y="173.238397"/>
     <use style="fill:#ff0000;stroke:#ff0000;" x="359.243317" xlink:href="#maaad25c343" y="182.654349"/>
     <use style="fill:#ff0000;stroke:#ff0000;" x="359.689271" xlink:href="#maaad25c343" y="175.884711"/>
     <use style="fill:#ff0000;stroke:#ff0000;" x="360.135225" xlink:href="#maaad25c343" y="180.96194"/>
     <use style="fill:#ff0000;stroke:#ff0000;" x="360.581179" xlink:href="#maaad25c343" y="177.946373"/>
     <use style="fill:#ff0000;stroke:#ff0000;" x="360.581179" xlink:href="#maaad25c343" y="177.946373"/>
     <use style="fill:#ff0000;stroke:#ff0000;" x="361.027133" xlink:href="#maaad25c343" y="174.869265"/>
     <use style="fill:#ff0000;stroke:#ff0000;" x="362.364995" xlink:href="#maaad25c343" y="180.96194"/>
     <use style="fill:#ff0000;stroke:#ff0000;" x="362.810949" xlink:href="#maaad25c343" y="175.423144"/>
     <use style="fill:#ff0000;stroke:#ff0000;" x="363.256903" xlink:href="#maaad25c343" y="164.22247"/>
     <use style="fill:#ff0000;stroke:#ff0000;" x="363.702857" xlink:href="#maaad25c343" y="154.591121"/>
     <use style="fill:#ff0000;stroke:#ff0000;" x="364.148811" xlink:href="#maaad25c343" y="160.714566"/>
     <use style="fill:#ff0000;stroke:#ff0000;" x="365.486673" xlink:href="#maaad25c343" y="151.483241"/>
     <use style="fill:#ff0000;stroke:#ff0000;" x="365.932627" xlink:href="#maaad25c343" y="155.083458"/>
     <use style="fill:#ff0000;stroke:#ff0000;" x="366.378581" xlink:href="#maaad25c343" y="150.867819"/>
     <use style="fill:#ff0000;stroke:#ff0000;" x="366.824535" xlink:href="#maaad25c343" y="148.590759"/>
     <use style="fill:#ff0000;stroke:#ff0000;" x="367.27049" xlink:href="#maaad25c343" y="135.020711"/>
     <use style="fill:#ff0000;stroke:#ff0000;" x="368.608352" xlink:href="#maaad25c343" y="138.40553"/>
     <use style="fill:#ff0000;stroke:#ff0000;" x="369.054306" xlink:href="#maaad25c343" y="142.92888"/>
     <use style="fill:#ff0000;stroke:#ff0000;" x="369.50026" xlink:href="#maaad25c343" y="143.728928"/>
     <use style="fill:#ff0000;stroke:#ff0000;" x="369.946214" xlink:href="#maaad25c343" y="136.251554"/>
     <use style="fill:#ff0000;stroke:#ff0000;" x="370.392168" xlink:href="#maaad25c343" y="138.220904"/>
     <use style="fill:#ff0000;stroke:#ff0000;" x="371.73003" xlink:href="#maaad25c343" y="144.621289"/>
     <use style="fill:#ff0000;stroke:#ff0000;" x="372.621938" xlink:href="#maaad25c343" y="161.053048"/>
     <use style="fill:#ff0000;stroke:#ff0000;" x="373.067892" xlink:href="#maaad25c343" y="160.714566"/>
     <use style="fill:#ff0000;stroke:#ff0000;" x="373.513846" xlink:href="#maaad25c343" y="163.883988"/>
     <use style="fill:#ff0000;stroke:#ff0000;" x="374.851708" xlink:href="#maaad25c343" y="155.575795"/>
     <use style="fill:#ff0000;stroke:#ff0000;" x="375.297662" xlink:href="#maaad25c343" y="154.437265"/>
     <use style="fill:#ff0000;stroke:#ff0000;" x="375.743616" xlink:href="#maaad25c343" y="150.252398"/>
     <use style="fill:#ff0000;stroke:#ff0000;" x="376.18957" xlink:href="#maaad25c343" y="133.29753"/>
     <use style="fill:#ff0000;stroke:#ff0000;" x="377.973387" xlink:href="#maaad25c343" y="104.095772"/>
     <use style="fill:#ff0000;stroke:#ff0000;" x="378.419341" xlink:href="#maaad25c343" y="103.111097"/>
     <use style="fill:#ff0000;stroke:#ff0000;" x="378.865295" xlink:href="#maaad25c343" y="86.402398"/>
     <use style="fill:#ff0000;stroke:#ff0000;" x="379.311249" xlink:href="#maaad25c343" y="86.556254"/>
     <use style="fill:#ff0000;stroke:#ff0000;" x="379.757203" xlink:href="#maaad25c343" y="68.309001"/>
     <use style="fill:#ff0000;stroke:#ff0000;" x="381.095065" xlink:href="#maaad25c343" y="75.078639"/>
     <use style="fill:#ff0000;stroke:#ff0000;" x="381.541019" xlink:href="#maaad25c343" y="82.494471"/>
     <use style="fill:#ff0000;stroke:#ff0000;" x="381.986973" xlink:href="#maaad25c343" y="80.002013"/>
     <use style="fill:#ff0000;stroke:#ff0000;" x="382.432927" xlink:href="#maaad25c343" y="71.016856"/>
     <use style="fill:#ff0000;stroke:#ff0000;" x="382.878881" xlink:href="#maaad25c343" y="78.771169"/>
     <use style="fill:#ff0000;stroke:#ff0000;" x="384.216743" xlink:href="#maaad25c343" y="82.063675"/>
     <use style="fill:#ff0000;stroke:#ff0000;" x="384.662697" xlink:href="#maaad25c343" y="72.647724"/>
     <use style="fill:#ff0000;stroke:#ff0000;" x="385.108651" xlink:href="#maaad25c343" y="75.909459"/>
     <use style="fill:#ff0000;stroke:#ff0000;" x="385.554605" xlink:href="#maaad25c343" y="67.72435"/>
     <use style="fill:#ff0000;stroke:#ff0000;" x="386.000559" xlink:href="#maaad25c343" y="62.708664"/>
     <use style="fill:#ff0000;stroke:#ff0000;" x="387.338422" xlink:href="#maaad25c343" y="60.770085"/>
     <use style="fill:#ff0000;stroke:#ff0000;" x="387.784376" xlink:href="#maaad25c343" y="72.709266"/>
     <use style="fill:#ff0000;stroke:#ff0000;" x="388.23033" xlink:href="#maaad25c343" y="89.84876"/>
     <use style="fill:#ff0000;stroke:#ff0000;" x="388.676284" xlink:href="#maaad25c343" y="94.802904"/>
     <use style="fill:#ff0000;stroke:#ff0000;" x="389.122238" xlink:href="#maaad25c343" y="74.340133"/>
     <use style="fill:#ff0000;stroke:#ff0000;" x="390.4601" xlink:href="#maaad25c343" y="64.554929"/>
     <use style="fill:#ff0000;stroke:#ff0000;" x="390.906054" xlink:href="#maaad25c343" y="70.247579"/>
     <use style="fill:#ff0000;stroke:#ff0000;" x="391.352008" xlink:href="#maaad25c343" y="74.463218"/>
     <use style="fill:#ff0000;stroke:#ff0000;" x="391.797962" xlink:href="#maaad25c343" y="57.20064"/>
     <use style="fill:#ff0000;stroke:#ff0000;" x="392.243916" xlink:href="#maaad25c343" y="58.216085"/>
     <use style="fill:#ff0000;stroke:#ff0000;" x="393.581778" xlink:href="#maaad25c343" y="59.4777"/>
     <use style="fill:#ff0000;stroke:#ff0000;" x="394.027732" xlink:href="#maaad25c343" y="52.154182"/>
     <use style="fill:#ff0000;stroke:#ff0000;" x="394.473686" xlink:href="#maaad25c343" y="52.431122"/>
     <use style="fill:#ff0000;stroke:#ff0000;" x="394.91964" xlink:href="#maaad25c343" y="60.493146"/>
     <use style="fill:#ff0000;stroke:#ff0000;" x="395.365594" xlink:href="#maaad25c343" y="61.200881"/>
     <use style="fill:#ff0000;stroke:#ff0000;" x="397.149411" xlink:href="#maaad25c343" y="63.631796"/>
     <use style="fill:#ff0000;stroke:#ff0000;" x="397.595365" xlink:href="#maaad25c343" y="59.323844"/>
     <use style="fill:#ff0000;stroke:#ff0000;" x="398.041319" xlink:href="#maaad25c343" y="62.370182"/>
     <use style="fill:#ff0000;stroke:#ff0000;" x="398.487273" xlink:href="#maaad25c343" y="73.693941"/>
    </g>
   </g>
   <g id="patch_3">
    <path d="M 57.6 276.48 
L 57.6 41.472 
" style="fill:none;stroke:#ffffff;stroke-linecap:square;stroke-linejoin:miter;"/>
   </g>
   <g id="patch_4">
    <path d="M 414.72 276.48 
L 414.72 41.472 
" style="fill:none;stroke:#ffffff;stroke-linecap:square;stroke-linejoin:miter;"/>
   </g>
   <g id="patch_5">
    <path d="M 57.6 276.48 
L 414.72 276.48 
" style="fill:none;stroke:#ffffff;stroke-linecap:square;stroke-linejoin:miter;"/>
   </g>
   <g id="patch_6">
    <path d="M 57.6 41.472 
L 414.72 41.472 
" style="fill:none;stroke:#ffffff;stroke-linecap:square;stroke-linejoin:miter;"/>
   </g>
  </g>
 </g>
 <defs>
  <clipPath id="pb5a433994d">
   <rect height="235.008" width="357.12" x="57.6" y="41.472"/>
  </clipPath>
 </defs>
</svg>
